<mxfile host="app.diagrams.net" modified="2021-12-08T16:09:54.092Z" agent="5.0 (Windows NT 10.0; Win64; x64) AppleWebKit/537.36 (KHTML, like Gecko) Chrome/95.0.4638.69 Safari/537.36 OPR/81.0.4196.61 (Edition Yx GX)" etag="dkhheJGWgQtdPxErLVLr" version="15.9.1" type="github">
  <diagram id="e2FWb0zlqIp-LkLaPtba" name="Page-1">
    <mxGraphModel dx="1005" dy="576" grid="1" gridSize="10" guides="1" tooltips="1" connect="1" arrows="1" fold="1" page="1" pageScale="1" pageWidth="827" pageHeight="1169" math="0" shadow="0">
      <root>
        <mxCell id="0" />
        <mxCell id="1" parent="0" />
        <mxCell id="qg9Bv7iyJqf_FRKgCrLy-1" value="Начало" style="strokeWidth=2;html=1;shape=mxgraph.flowchart.start_1;whiteSpace=wrap;fontStyle=0" vertex="1" parent="1">
          <mxGeometry x="364" y="20" width="100" height="60" as="geometry" />
        </mxCell>
        <mxCell id="qg9Bv7iyJqf_FRKgCrLy-2" value="&lt;div&gt;import json&lt;/div&gt;&lt;div&gt;import operator&lt;/div&gt;&lt;div&gt;import glob&lt;/div&gt;&lt;div&gt;import os&lt;/div&gt;&lt;div&gt;import matplotlib.pyplot as plt&lt;/div&gt;&lt;div&gt;from dateutil.parser import parse&lt;/div&gt;&lt;div&gt;from datetime import timedelta&lt;/div&gt;&lt;div&gt;from collections import defaultdict&lt;/div&gt;" style="rounded=0;whiteSpace=wrap;html=1;align=left;fontStyle=0" vertex="1" parent="1">
          <mxGeometry x="301" y="100" width="226" height="120" as="geometry" />
        </mxCell>
        <mxCell id="qg9Bv7iyJqf_FRKgCrLy-3" value="&lt;font style=&quot;font-size: 8px&quot;&gt;def bin_by_hours(given_time, bin_amt):&lt;/font&gt;" style="shape=process;whiteSpace=wrap;html=1;backgroundOutline=1;fontStyle=0" vertex="1" parent="1">
          <mxGeometry x="354" y="250" width="120" height="60" as="geometry" />
        </mxCell>
        <mxCell id="qg9Bv7iyJqf_FRKgCrLy-4" value="&lt;div&gt;&amp;nbsp;return given_time - timedelta(hours=given_time.hour % bin_amt, minutes=given_time.minute,&lt;span&gt;&amp;nbsp; &amp;nbsp; &amp;nbsp; &amp;nbsp; &amp;nbsp; &amp;nbsp; seconds=given_time.second, microseconds=given_time.microsecond)&lt;/span&gt;&lt;/div&gt;" style="rounded=0;whiteSpace=wrap;html=1;fontSize=8;align=left;fontStyle=0" vertex="1" parent="1">
          <mxGeometry x="326" y="330" width="176" height="60" as="geometry" />
        </mxCell>
        <mxCell id="qg9Bv7iyJqf_FRKgCrLy-5" value="&lt;font style=&quot;font-size: 7px&quot;&gt;def bin_by_minutes(given_time, bin_amt):&lt;/font&gt;" style="shape=process;whiteSpace=wrap;html=1;backgroundOutline=1;fontSize=8;fontStyle=0" vertex="1" parent="1">
          <mxGeometry x="354" y="430" width="120" height="60" as="geometry" />
        </mxCell>
        <mxCell id="qg9Bv7iyJqf_FRKgCrLy-6" value="&amp;nbsp;return given_time - timedelta(minutes=given_time.minute % bin_amt, seconds=given_time.second, microseconds=given_time.microsecond)" style="rounded=0;whiteSpace=wrap;html=1;fontSize=7;fontStyle=0" vertex="1" parent="1">
          <mxGeometry x="351" y="525" width="126" height="60" as="geometry" />
        </mxCell>
        <mxCell id="qg9Bv7iyJqf_FRKgCrLy-7" value="&lt;font style=&quot;font-size: 10px&quot;&gt;&lt;span class=&quot;pl-k&quot; style=&quot;box-sizing: border-box ; font-family: , , &amp;quot;sf mono&amp;quot; , &amp;quot;menlo&amp;quot; , &amp;quot;consolas&amp;quot; , &amp;quot;liberation mono&amp;quot; , monospace ; background-color: rgb(255 , 255 , 255)&quot;&gt;def&lt;/span&gt;&lt;span style=&quot;color: rgb(36 , 41 , 47) ; font-family: , , &amp;quot;sf mono&amp;quot; , &amp;quot;menlo&amp;quot; , &amp;quot;consolas&amp;quot; , &amp;quot;liberation mono&amp;quot; , monospace ; background-color: rgb(255 , 255 , 255)&quot;&gt; &lt;/span&gt;&lt;span class=&quot;pl-en&quot; style=&quot;box-sizing: border-box ; font-family: , , &amp;quot;sf mono&amp;quot; , &amp;quot;menlo&amp;quot; , &amp;quot;consolas&amp;quot; , &amp;quot;liberation mono&amp;quot; , monospace ; background-color: rgb(255 , 255 , 255)&quot;&gt;&lt;span class=&quot;pl-token&quot; style=&quot;box-sizing: border-box&quot;&gt;__init__&lt;/span&gt;&lt;/span&gt;&lt;span style=&quot;color: rgb(36 , 41 , 47) ; font-family: , , &amp;quot;sf mono&amp;quot; , &amp;quot;menlo&amp;quot; , &amp;quot;consolas&amp;quot; , &amp;quot;liberation mono&amp;quot; , monospace ; background-color: rgb(255 , 255 , 255)&quot;&gt;(&lt;/span&gt;&lt;span class=&quot;pl-s1&quot; style=&quot;box-sizing: border-box ; color: rgb(36 , 41 , 47) ; font-family: , , &amp;quot;sf mono&amp;quot; , &amp;quot;menlo&amp;quot; , &amp;quot;consolas&amp;quot; , &amp;quot;liberation mono&amp;quot; , monospace ; background-color: rgb(255 , 255 , 255)&quot;&gt;self&lt;/span&gt;&lt;span style=&quot;color: rgb(36 , 41 , 47) ; font-family: , , &amp;quot;sf mono&amp;quot; , &amp;quot;menlo&amp;quot; , &amp;quot;consolas&amp;quot; , &amp;quot;liberation mono&amp;quot; , monospace ; background-color: rgb(255 , 255 , 255)&quot;&gt;, &lt;/span&gt;&lt;span class=&quot;pl-s1&quot; style=&quot;box-sizing: border-box ; color: rgb(36 , 41 , 47) ; font-family: , , &amp;quot;sf mono&amp;quot; , &amp;quot;menlo&amp;quot; , &amp;quot;consolas&amp;quot; , &amp;quot;liberation mono&amp;quot; , monospace ; background-color: rgb(255 , 255 , 255)&quot;&gt;json_dir&lt;/span&gt;&lt;span class=&quot;pl-c1&quot; style=&quot;box-sizing: border-box ; font-family: , , &amp;quot;sf mono&amp;quot; , &amp;quot;menlo&amp;quot; , &amp;quot;consolas&amp;quot; , &amp;quot;liberation mono&amp;quot; , monospace ; background-color: rgb(255 , 255 , 255)&quot;&gt;=&lt;/span&gt;&lt;span class=&quot;pl-s&quot; style=&quot;box-sizing: border-box ; font-family: , , &amp;quot;sf mono&amp;quot; , &amp;quot;menlo&amp;quot; , &amp;quot;consolas&amp;quot; , &amp;quot;liberation mono&amp;quot; , monospace ; background-color: rgb(255 , 255 , 255)&quot;&gt;&#39;log&#39;&lt;/span&gt;&lt;span style=&quot;color: rgb(36 , 41 , 47) ; font-family: , , &amp;quot;sf mono&amp;quot; , &amp;quot;menlo&amp;quot; , &amp;quot;consolas&amp;quot; , &amp;quot;liberation mono&amp;quot; , monospace ; background-color: rgb(255 , 255 , 255)&quot;&gt;):&lt;/span&gt;&lt;/font&gt;" style="shape=process;whiteSpace=wrap;html=1;backgroundOutline=1;fontSize=7;fontStyle=0" vertex="1" parent="1">
          <mxGeometry x="354" y="720" width="120" height="60" as="geometry" />
        </mxCell>
        <mxCell id="qg9Bv7iyJqf_FRKgCrLy-8" value="&lt;div&gt;&amp;nbsp;self.files = glob.glob(json_dir + os.sep + &#39;cowrie.jso*&#39;)&lt;/div&gt;&lt;div&gt;self.num_ssh, self.num_telnet = 0, 0&lt;/div&gt;&lt;div&gt;self.src_ip_cnt = defaultdict(int)&amp;nbsp; # defaultdict, so no special case for the first instance of a count&lt;/div&gt;&lt;div&gt;self.username_cnt = defaultdict(int)&lt;/div&gt;&lt;div&gt;self.pass_cnt = defaultdict(int)&lt;/div&gt;&lt;div&gt;self.userpass_cnt = defaultdict(int)&lt;/div&gt;&lt;div&gt;self.ssh_times_cnt = defaultdict(int)&lt;/div&gt;&lt;div&gt;self.telnet_times_cnt = defaultdict(int)&lt;/div&gt;&lt;div&gt;self.geoip_lookup = defaultdict(int)&lt;/div&gt;" style="rounded=0;whiteSpace=wrap;html=1;fontSize=10;align=left;fontStyle=0" vertex="1" parent="1">
          <mxGeometry x="296" y="800" width="236" height="150" as="geometry" />
        </mxCell>
        <mxCell id="qg9Bv7iyJqf_FRKgCrLy-9" value="&lt;div&gt;fig = plt.figure()&lt;/div&gt;&lt;div&gt;ax = fig.add_subplot(111)&lt;/div&gt;&lt;div&gt;ax.set_xlabel(&#39;Time&#39;)&lt;/div&gt;&lt;div&gt;ax.set_ylabel(&#39;Attack Attempts&#39;)&lt;/div&gt;&lt;div&gt;ax.set_title(&#39;Attack Attempts per Day&#39;)&lt;/div&gt;&lt;div&gt;dates, ssh_attempts = zip(*sorted(self.ssh_times_cnt.items()))&lt;/div&gt;&lt;div&gt;ax.plot(dates, ssh_attempts, &#39;b-&#39;, label=&#39;SSH Attempts&#39;)&lt;/div&gt;&lt;div&gt;dates, telnet_attempts = zip(*sorted(self.telnet_times_cnt.items()))&lt;/div&gt;&lt;div&gt;ax.plot(dates, telnet_attempts, &#39;r-&#39;, label=&#39;Telnet Attempts&#39;)&lt;/div&gt;&lt;div&gt;ax.legend()&lt;/div&gt;&lt;div&gt;fig.autofmt_xdate()&lt;/div&gt;&lt;div style=&quot;&quot;&gt;fig.savefig(&#39;attack_attempts.png&#39;)&lt;/div&gt;" style="rounded=0;whiteSpace=wrap;html=1;fontSize=10;align=left;fontStyle=0" vertex="1" parent="1">
          <mxGeometry x="286" y="1090" width="256" height="190" as="geometry" />
        </mxCell>
        <mxCell id="qg9Bv7iyJqf_FRKgCrLy-10" value="&lt;span class=&quot;pl-k&quot; style=&quot;box-sizing: border-box ; font-family: , , &amp;quot;sf mono&amp;quot; , &amp;quot;menlo&amp;quot; , &amp;quot;consolas&amp;quot; , &amp;quot;liberation mono&amp;quot; , monospace ; font-size: 12px ; background-color: rgb(255 , 255 , 255)&quot;&gt;def&lt;/span&gt;&lt;span style=&quot;color: rgb(36 , 41 , 47) ; font-family: , , &amp;quot;sf mono&amp;quot; , &amp;quot;menlo&amp;quot; , &amp;quot;consolas&amp;quot; , &amp;quot;liberation mono&amp;quot; , monospace ; font-size: 12px ; background-color: rgb(255 , 255 , 255)&quot;&gt; &lt;/span&gt;&lt;span class=&quot;pl-en&quot; style=&quot;box-sizing: border-box ; font-family: , , &amp;quot;sf mono&amp;quot; , &amp;quot;menlo&amp;quot; , &amp;quot;consolas&amp;quot; , &amp;quot;liberation mono&amp;quot; , monospace ; font-size: 12px ; background-color: rgb(255 , 255 , 255)&quot;&gt;&lt;span class=&quot;pl-token&quot; style=&quot;box-sizing: border-box&quot;&gt;plot&lt;/span&gt;&lt;/span&gt;&lt;span style=&quot;color: rgb(36 , 41 , 47) ; font-family: , , &amp;quot;sf mono&amp;quot; , &amp;quot;menlo&amp;quot; , &amp;quot;consolas&amp;quot; , &amp;quot;liberation mono&amp;quot; , monospace ; font-size: 12px ; background-color: rgb(255 , 255 , 255)&quot;&gt;(&lt;/span&gt;&lt;span class=&quot;pl-s1&quot; style=&quot;box-sizing: border-box ; color: rgb(36 , 41 , 47) ; font-family: , , &amp;quot;sf mono&amp;quot; , &amp;quot;menlo&amp;quot; , &amp;quot;consolas&amp;quot; , &amp;quot;liberation mono&amp;quot; , monospace ; font-size: 12px ; background-color: rgb(255 , 255 , 255)&quot;&gt;self&lt;/span&gt;&lt;span style=&quot;color: rgb(36 , 41 , 47) ; font-family: , , &amp;quot;sf mono&amp;quot; , &amp;quot;menlo&amp;quot; , &amp;quot;consolas&amp;quot; , &amp;quot;liberation mono&amp;quot; , monospace ; font-size: 12px ; background-color: rgb(255 , 255 , 255)&quot;&gt;):&lt;/span&gt;" style="shape=process;whiteSpace=wrap;html=1;backgroundOutline=1;fontSize=10;fontStyle=0" vertex="1" parent="1">
          <mxGeometry x="354" y="990" width="120" height="60" as="geometry" />
        </mxCell>
        <mxCell id="qg9Bv7iyJqf_FRKgCrLy-11" value="&lt;span style=&quot;color: rgb(36 , 41 , 47) ; font-family: , , &amp;quot;sf mono&amp;quot; , &amp;quot;menlo&amp;quot; , &amp;quot;consolas&amp;quot; , &amp;quot;liberation mono&amp;quot; , monospace ; font-size: 12px ; background-color: rgb(255 , 255 , 255)&quot;&gt; &lt;/span&gt;&lt;span class=&quot;pl-k&quot; style=&quot;box-sizing: border-box ; font-family: , , &amp;quot;sf mono&amp;quot; , &amp;quot;menlo&amp;quot; , &amp;quot;consolas&amp;quot; , &amp;quot;liberation mono&amp;quot; , monospace ; font-size: 12px ; background-color: rgb(255 , 255 , 255)&quot;&gt;def&lt;/span&gt;&lt;span style=&quot;color: rgb(36 , 41 , 47) ; font-family: , , &amp;quot;sf mono&amp;quot; , &amp;quot;menlo&amp;quot; , &amp;quot;consolas&amp;quot; , &amp;quot;liberation mono&amp;quot; , monospace ; font-size: 12px ; background-color: rgb(255 , 255 , 255)&quot;&gt; &lt;/span&gt;&lt;span class=&quot;pl-en&quot; style=&quot;box-sizing: border-box ; font-family: , , &amp;quot;sf mono&amp;quot; , &amp;quot;menlo&amp;quot; , &amp;quot;consolas&amp;quot; , &amp;quot;liberation mono&amp;quot; , monospace ; font-size: 12px ; background-color: rgb(255 , 255 , 255)&quot;&gt;run&lt;/span&gt;&lt;span style=&quot;color: rgb(36 , 41 , 47) ; font-family: , , &amp;quot;sf mono&amp;quot; , &amp;quot;menlo&amp;quot; , &amp;quot;consolas&amp;quot; , &amp;quot;liberation mono&amp;quot; , monospace ; font-size: 12px ; background-color: rgb(255 , 255 , 255)&quot;&gt;(&lt;/span&gt;&lt;span class=&quot;pl-s1&quot; style=&quot;box-sizing: border-box ; color: rgb(36 , 41 , 47) ; font-family: , , &amp;quot;sf mono&amp;quot; , &amp;quot;menlo&amp;quot; , &amp;quot;consolas&amp;quot; , &amp;quot;liberation mono&amp;quot; , monospace ; font-size: 12px ; background-color: rgb(255 , 255 , 255)&quot;&gt;self&lt;/span&gt;&lt;span style=&quot;color: rgb(36 , 41 , 47) ; font-family: , , &amp;quot;sf mono&amp;quot; , &amp;quot;menlo&amp;quot; , &amp;quot;consolas&amp;quot; , &amp;quot;liberation mono&amp;quot; , monospace ; background-color: rgb(255 , 255 , 255)&quot;&gt;):&lt;/span&gt;" style="shape=process;whiteSpace=wrap;html=1;backgroundOutline=1;fontSize=10;fontStyle=0" vertex="1" parent="1">
          <mxGeometry x="354" y="1320" width="120" height="60" as="geometry" />
        </mxCell>
        <mxCell id="qg9Bv7iyJqf_FRKgCrLy-12" value="&lt;span style=&quot;color: rgb(36 , 41 , 47) ; font-family: , , &amp;quot;sf mono&amp;quot; , &amp;quot;menlo&amp;quot; , &amp;quot;consolas&amp;quot; , &amp;quot;liberation mono&amp;quot; , monospace ; background-color: rgb(255 , 255 , 255)&quot;&gt; &lt;/span&gt;&lt;font style=&quot;font-size: 11px&quot;&gt;&lt;span class=&quot;pl-s1&quot; style=&quot;box-sizing: border-box ; color: rgb(36 , 41 , 47) ; font-family: , , &amp;quot;sf mono&amp;quot; , &amp;quot;menlo&amp;quot; , &amp;quot;consolas&amp;quot; , &amp;quot;liberation mono&amp;quot; , monospace ; background-color: rgb(255 , 255 , 255)&quot;&gt;total_contents&lt;/span&gt;&lt;span style=&quot;color: rgb(36 , 41 , 47) ; font-family: , , &amp;quot;sf mono&amp;quot; , &amp;quot;menlo&amp;quot; , &amp;quot;consolas&amp;quot; , &amp;quot;liberation mono&amp;quot; , monospace ; background-color: rgb(255 , 255 , 255)&quot;&gt; &lt;/span&gt;&lt;span class=&quot;pl-c1&quot; style=&quot;box-sizing: border-box ; font-family: , , &amp;quot;sf mono&amp;quot; , &amp;quot;menlo&amp;quot; , &amp;quot;consolas&amp;quot; , &amp;quot;liberation mono&amp;quot; , monospace ; background-color: rgb(255 , 255 , 255)&quot;&gt;=&lt;/span&gt;&lt;span style=&quot;color: rgb(36 , 41 , 47) ; font-family: , , &amp;quot;sf mono&amp;quot; , &amp;quot;menlo&amp;quot; , &amp;quot;consolas&amp;quot; , &amp;quot;liberation mono&amp;quot; , monospace ; background-color: rgb(255 , 255 , 255)&quot;&gt; []&lt;/span&gt;&lt;/font&gt;" style="rounded=0;whiteSpace=wrap;html=1;fontSize=10;fontStyle=0" vertex="1" parent="1">
          <mxGeometry x="354" y="1410" width="120" height="60" as="geometry" />
        </mxCell>
        <mxCell id="qg9Bv7iyJqf_FRKgCrLy-22" style="edgeStyle=orthogonalEdgeStyle;rounded=0;orthogonalLoop=1;jettySize=auto;html=1;exitX=1;exitY=0.5;exitDx=0;exitDy=0;entryX=0.5;entryY=0;entryDx=0;entryDy=0;fontSize=9;fontStyle=0" edge="1" parent="1" source="qg9Bv7iyJqf_FRKgCrLy-13" target="qg9Bv7iyJqf_FRKgCrLy-21">
          <mxGeometry relative="1" as="geometry">
            <Array as="points">
              <mxPoint x="550" y="1540" />
              <mxPoint x="550" y="1930" />
              <mxPoint x="414" y="1930" />
            </Array>
          </mxGeometry>
        </mxCell>
        <mxCell id="qg9Bv7iyJqf_FRKgCrLy-13" value="&lt;span class=&quot;pl-k&quot; style=&quot;box-sizing: border-box ; font-family: , , &amp;quot;sf mono&amp;quot; , &amp;quot;menlo&amp;quot; , &amp;quot;consolas&amp;quot; , &amp;quot;liberation mono&amp;quot; , monospace ; font-size: 12px ; background-color: rgb(255 , 255 , 255)&quot;&gt;for&lt;/span&gt;&lt;span style=&quot;color: rgb(36 , 41 , 47) ; font-family: , , &amp;quot;sf mono&amp;quot; , &amp;quot;menlo&amp;quot; , &amp;quot;consolas&amp;quot; , &amp;quot;liberation mono&amp;quot; , monospace ; font-size: 12px ; background-color: rgb(255 , 255 , 255)&quot;&gt; &lt;/span&gt;&lt;span class=&quot;pl-s1&quot; style=&quot;box-sizing: border-box ; color: rgb(36 , 41 , 47) ; font-family: , , &amp;quot;sf mono&amp;quot; , &amp;quot;menlo&amp;quot; , &amp;quot;consolas&amp;quot; , &amp;quot;liberation mono&amp;quot; , monospace ; font-size: 12px ; background-color: rgb(255 , 255 , 255)&quot;&gt;file&lt;/span&gt;&lt;span style=&quot;color: rgb(36 , 41 , 47) ; font-family: , , &amp;quot;sf mono&amp;quot; , &amp;quot;menlo&amp;quot; , &amp;quot;consolas&amp;quot; , &amp;quot;liberation mono&amp;quot; , monospace ; font-size: 12px ; background-color: rgb(255 , 255 , 255)&quot;&gt; &lt;/span&gt;&lt;span class=&quot;pl-c1&quot; style=&quot;box-sizing: border-box ; font-family: , , &amp;quot;sf mono&amp;quot; , &amp;quot;menlo&amp;quot; , &amp;quot;consolas&amp;quot; , &amp;quot;liberation mono&amp;quot; , monospace ; font-size: 12px ; background-color: rgb(255 , 255 , 255)&quot;&gt;in&lt;/span&gt;&lt;span style=&quot;color: rgb(36 , 41 , 47) ; font-family: , , &amp;quot;sf mono&amp;quot; , &amp;quot;menlo&amp;quot; , &amp;quot;consolas&amp;quot; , &amp;quot;liberation mono&amp;quot; , monospace ; font-size: 12px ; background-color: rgb(255 , 255 , 255)&quot;&gt; &lt;/span&gt;&lt;span class=&quot;pl-s1&quot; style=&quot;box-sizing: border-box ; color: rgb(36 , 41 , 47) ; font-family: , , &amp;quot;sf mono&amp;quot; , &amp;quot;menlo&amp;quot; , &amp;quot;consolas&amp;quot; , &amp;quot;liberation mono&amp;quot; , monospace ; font-size: 12px ; background-color: rgb(255 , 255 , 255)&quot;&gt;self&lt;/span&gt;&lt;span style=&quot;color: rgb(36 , 41 , 47) ; font-family: , , &amp;quot;sf mono&amp;quot; , &amp;quot;menlo&amp;quot; , &amp;quot;consolas&amp;quot; , &amp;quot;liberation mono&amp;quot; , monospace ; font-size: 12px ; background-color: rgb(255 , 255 , 255)&quot;&gt;.&lt;/span&gt;&lt;span class=&quot;pl-s1&quot; style=&quot;box-sizing: border-box ; color: rgb(36 , 41 , 47) ; font-family: , , &amp;quot;sf mono&amp;quot; , &amp;quot;menlo&amp;quot; , &amp;quot;consolas&amp;quot; , &amp;quot;liberation mono&amp;quot; , monospace ; font-size: 12px ; background-color: rgb(255 , 255 , 255)&quot;&gt;files&lt;/span&gt;&lt;span style=&quot;color: rgb(36 , 41 , 47) ; font-family: , , &amp;quot;sf mono&amp;quot; , &amp;quot;menlo&amp;quot; , &amp;quot;consolas&amp;quot; , &amp;quot;liberation mono&amp;quot; , monospace ; font-size: 12px ; background-color: rgb(255 , 255 , 255)&quot;&gt;:&lt;/span&gt;" style="shape=hexagon;perimeter=hexagonPerimeter2;whiteSpace=wrap;html=1;fixedSize=1;fontSize=11;fontStyle=0" vertex="1" parent="1">
          <mxGeometry x="354" y="1500" width="120" height="80" as="geometry" />
        </mxCell>
        <mxCell id="qg9Bv7iyJqf_FRKgCrLy-14" value="&lt;font style=&quot;font-size: 8px&quot;&gt;&lt;span class=&quot;pl-k&quot; style=&quot;box-sizing: border-box ; font-family: , , &amp;quot;sf mono&amp;quot; , &amp;quot;menlo&amp;quot; , &amp;quot;consolas&amp;quot; , &amp;quot;liberation mono&amp;quot; , monospace ; background-color: rgb(255 , 255 , 255)&quot;&gt;with&lt;/span&gt;&lt;span style=&quot;color: rgb(36 , 41 , 47) ; font-family: , , &amp;quot;sf mono&amp;quot; , &amp;quot;menlo&amp;quot; , &amp;quot;consolas&amp;quot; , &amp;quot;liberation mono&amp;quot; , monospace ; background-color: rgb(255 , 255 , 255)&quot;&gt; &lt;/span&gt;&lt;span class=&quot;pl-en&quot; style=&quot;box-sizing: border-box ; font-family: , , &amp;quot;sf mono&amp;quot; , &amp;quot;menlo&amp;quot; , &amp;quot;consolas&amp;quot; , &amp;quot;liberation mono&amp;quot; , monospace ; background-color: rgb(255 , 255 , 255)&quot;&gt;open&lt;/span&gt;&lt;span style=&quot;color: rgb(36 , 41 , 47) ; font-family: , , &amp;quot;sf mono&amp;quot; , &amp;quot;menlo&amp;quot; , &amp;quot;consolas&amp;quot; , &amp;quot;liberation mono&amp;quot; , monospace ; background-color: rgb(255 , 255 , 255)&quot;&gt;(&lt;/span&gt;&lt;span class=&quot;pl-s1&quot; style=&quot;box-sizing: border-box ; color: rgb(36 , 41 , 47) ; font-family: , , &amp;quot;sf mono&amp;quot; , &amp;quot;menlo&amp;quot; , &amp;quot;consolas&amp;quot; , &amp;quot;liberation mono&amp;quot; , monospace ; background-color: rgb(255 , 255 , 255)&quot;&gt;file&lt;/span&gt;&lt;span style=&quot;color: rgb(36 , 41 , 47) ; font-family: , , &amp;quot;sf mono&amp;quot; , &amp;quot;menlo&amp;quot; , &amp;quot;consolas&amp;quot; , &amp;quot;liberation mono&amp;quot; , monospace ; background-color: rgb(255 , 255 , 255)&quot;&gt;) &lt;/span&gt;&lt;span class=&quot;pl-k&quot; style=&quot;box-sizing: border-box ; font-family: , , &amp;quot;sf mono&amp;quot; , &amp;quot;menlo&amp;quot; , &amp;quot;consolas&amp;quot; , &amp;quot;liberation mono&amp;quot; , monospace ; background-color: rgb(255 , 255 , 255)&quot;&gt;as&lt;/span&gt;&lt;span style=&quot;color: rgb(36 , 41 , 47) ; font-family: , , &amp;quot;sf mono&amp;quot; , &amp;quot;menlo&amp;quot; , &amp;quot;consolas&amp;quot; , &amp;quot;liberation mono&amp;quot; , monospace ; background-color: rgb(255 , 255 , 255)&quot;&gt; &lt;/span&gt;&lt;span class=&quot;pl-s1&quot; style=&quot;box-sizing: border-box ; color: rgb(36 , 41 , 47) ; font-family: , , &amp;quot;sf mono&amp;quot; , &amp;quot;menlo&amp;quot; , &amp;quot;consolas&amp;quot; , &amp;quot;liberation mono&amp;quot; , monospace ; background-color: rgb(255 , 255 , 255)&quot;&gt;openfile&lt;/span&gt;&lt;span style=&quot;color: rgb(36 , 41 , 47) ; font-family: , , &amp;quot;sf mono&amp;quot; , &amp;quot;menlo&amp;quot; , &amp;quot;consolas&amp;quot; , &amp;quot;liberation mono&amp;quot; , monospace ; background-color: rgb(255 , 255 , 255)&quot;&gt;:&lt;/span&gt;&lt;/font&gt;" style="shape=parallelogram;perimeter=parallelogramPerimeter;whiteSpace=wrap;html=1;fixedSize=1;fontSize=11;fontStyle=0" vertex="1" parent="1">
          <mxGeometry x="354" y="1610" width="120" height="60" as="geometry" />
        </mxCell>
        <mxCell id="qg9Bv7iyJqf_FRKgCrLy-15" value="&lt;span class=&quot;pl-k&quot; style=&quot;box-sizing: border-box ; font-family: , , &amp;quot;sf mono&amp;quot; , &amp;quot;menlo&amp;quot; , &amp;quot;consolas&amp;quot; , &amp;quot;liberation mono&amp;quot; , monospace ; font-size: 12px ; background-color: rgb(255 , 255 , 255)&quot;&gt;for&lt;/span&gt;&lt;span style=&quot;color: rgb(36 , 41 , 47) ; font-family: , , &amp;quot;sf mono&amp;quot; , &amp;quot;menlo&amp;quot; , &amp;quot;consolas&amp;quot; , &amp;quot;liberation mono&amp;quot; , monospace ; font-size: 12px ; background-color: rgb(255 , 255 , 255)&quot;&gt; &lt;/span&gt;&lt;span class=&quot;pl-s1&quot; style=&quot;box-sizing: border-box ; color: rgb(36 , 41 , 47) ; font-family: , , &amp;quot;sf mono&amp;quot; , &amp;quot;menlo&amp;quot; , &amp;quot;consolas&amp;quot; , &amp;quot;liberation mono&amp;quot; , monospace ; font-size: 12px ; background-color: rgb(255 , 255 , 255)&quot;&gt;line&lt;/span&gt;&lt;span style=&quot;color: rgb(36 , 41 , 47) ; font-family: , , &amp;quot;sf mono&amp;quot; , &amp;quot;menlo&amp;quot; , &amp;quot;consolas&amp;quot; , &amp;quot;liberation mono&amp;quot; , monospace ; font-size: 12px ; background-color: rgb(255 , 255 , 255)&quot;&gt; &lt;/span&gt;&lt;span class=&quot;pl-c1&quot; style=&quot;box-sizing: border-box ; font-family: , , &amp;quot;sf mono&amp;quot; , &amp;quot;menlo&amp;quot; , &amp;quot;consolas&amp;quot; , &amp;quot;liberation mono&amp;quot; , monospace ; font-size: 12px ; background-color: rgb(255 , 255 , 255)&quot;&gt;in&lt;/span&gt;&lt;span style=&quot;color: rgb(36 , 41 , 47) ; font-family: , , &amp;quot;sf mono&amp;quot; , &amp;quot;menlo&amp;quot; , &amp;quot;consolas&amp;quot; , &amp;quot;liberation mono&amp;quot; , monospace ; font-size: 12px ; background-color: rgb(255 , 255 , 255)&quot;&gt; &lt;/span&gt;&lt;span class=&quot;pl-s1&quot; style=&quot;box-sizing: border-box ; color: rgb(36 , 41 , 47) ; font-family: , , &amp;quot;sf mono&amp;quot; , &amp;quot;menlo&amp;quot; , &amp;quot;consolas&amp;quot; , &amp;quot;liberation mono&amp;quot; , monospace ; font-size: 12px ; background-color: rgb(255 , 255 , 255)&quot;&gt;openfile&lt;/span&gt;&lt;span style=&quot;color: rgb(36 , 41 , 47) ; font-family: , , &amp;quot;sf mono&amp;quot; , &amp;quot;menlo&amp;quot; , &amp;quot;consolas&amp;quot; , &amp;quot;liberation mono&amp;quot; , monospace ; font-size: 12px ; background-color: rgb(255 , 255 , 255)&quot;&gt;:&lt;/span&gt;" style="shape=hexagon;perimeter=hexagonPerimeter2;whiteSpace=wrap;html=1;fixedSize=1;fontSize=8;fontStyle=0" vertex="1" parent="1">
          <mxGeometry x="354" y="1690" width="120" height="80" as="geometry" />
        </mxCell>
        <mxCell id="qg9Bv7iyJqf_FRKgCrLy-18" style="edgeStyle=orthogonalEdgeStyle;rounded=0;orthogonalLoop=1;jettySize=auto;html=1;exitX=0.5;exitY=1;exitDx=0;exitDy=0;entryX=0;entryY=0.5;entryDx=0;entryDy=0;fontSize=10;fontStyle=0" edge="1" parent="1" source="qg9Bv7iyJqf_FRKgCrLy-16" target="qg9Bv7iyJqf_FRKgCrLy-15">
          <mxGeometry relative="1" as="geometry" />
        </mxCell>
        <mxCell id="qg9Bv7iyJqf_FRKgCrLy-20" style="edgeStyle=orthogonalEdgeStyle;rounded=0;orthogonalLoop=1;jettySize=auto;html=1;entryX=0;entryY=0.5;entryDx=0;entryDy=0;fontSize=10;fontStyle=0" edge="1" parent="1" source="qg9Bv7iyJqf_FRKgCrLy-16" target="qg9Bv7iyJqf_FRKgCrLy-13">
          <mxGeometry relative="1" as="geometry">
            <Array as="points">
              <mxPoint x="414" y="1910" />
              <mxPoint x="300" y="1910" />
              <mxPoint x="300" y="1540" />
            </Array>
          </mxGeometry>
        </mxCell>
        <mxCell id="qg9Bv7iyJqf_FRKgCrLy-16" value="&lt;font style=&quot;font-size: 10px&quot;&gt;&lt;span class=&quot;pl-s1&quot; style=&quot;box-sizing: border-box ; color: rgb(36 , 41 , 47) ; font-family: , , &amp;quot;sf mono&amp;quot; , &amp;quot;menlo&amp;quot; , &amp;quot;consolas&amp;quot; , &amp;quot;liberation mono&amp;quot; , monospace ; background-color: rgb(255 , 255 , 255)&quot;&gt;total_contents&lt;/span&gt;&lt;span style=&quot;color: rgb(36 , 41 , 47) ; font-family: , , &amp;quot;sf mono&amp;quot; , &amp;quot;menlo&amp;quot; , &amp;quot;consolas&amp;quot; , &amp;quot;liberation mono&amp;quot; , monospace ; background-color: rgb(255 , 255 , 255)&quot;&gt;.&lt;/span&gt;&lt;span class=&quot;pl-en&quot; style=&quot;box-sizing: border-box ; font-family: , , &amp;quot;sf mono&amp;quot; , &amp;quot;menlo&amp;quot; , &amp;quot;consolas&amp;quot; , &amp;quot;liberation mono&amp;quot; , monospace ; background-color: rgb(255 , 255 , 255)&quot;&gt;append&lt;br&gt;&lt;/span&gt;&lt;span style=&quot;color: rgb(36 , 41 , 47) ; font-family: , , &amp;quot;sf mono&amp;quot; , &amp;quot;menlo&amp;quot; , &amp;quot;consolas&amp;quot; , &amp;quot;liberation mono&amp;quot; , monospace ; background-color: rgb(255 , 255 , 255)&quot;&gt;(&lt;/span&gt;&lt;span class=&quot;pl-s1&quot; style=&quot;box-sizing: border-box ; color: rgb(36 , 41 , 47) ; font-family: , , &amp;quot;sf mono&amp;quot; , &amp;quot;menlo&amp;quot; , &amp;quot;consolas&amp;quot; , &amp;quot;liberation mono&amp;quot; , monospace ; background-color: rgb(255 , 255 , 255)&quot;&gt;json&lt;/span&gt;&lt;span style=&quot;color: rgb(36 , 41 , 47) ; font-family: , , &amp;quot;sf mono&amp;quot; , &amp;quot;menlo&amp;quot; , &amp;quot;consolas&amp;quot; , &amp;quot;liberation mono&amp;quot; , monospace ; background-color: rgb(255 , 255 , 255)&quot;&gt;.&lt;/span&gt;&lt;span class=&quot;pl-en&quot; style=&quot;box-sizing: border-box ; font-family: , , &amp;quot;sf mono&amp;quot; , &amp;quot;menlo&amp;quot; , &amp;quot;consolas&amp;quot; , &amp;quot;liberation mono&amp;quot; , monospace ; background-color: rgb(255 , 255 , 255)&quot;&gt;loads&lt;/span&gt;&lt;span style=&quot;color: rgb(36 , 41 , 47) ; font-family: , , &amp;quot;sf mono&amp;quot; , &amp;quot;menlo&amp;quot; , &amp;quot;consolas&amp;quot; , &amp;quot;liberation mono&amp;quot; , monospace ; background-color: rgb(255 , 255 , 255)&quot;&gt;(&lt;/span&gt;&lt;span class=&quot;pl-s1&quot; style=&quot;box-sizing: border-box ; color: rgb(36 , 41 , 47) ; font-family: , , &amp;quot;sf mono&amp;quot; , &amp;quot;menlo&amp;quot; , &amp;quot;consolas&amp;quot; , &amp;quot;liberation mono&amp;quot; , monospace ; background-color: rgb(255 , 255 , 255)&quot;&gt;line&lt;/span&gt;&lt;span style=&quot;color: rgb(36 , 41 , 47) ; font-family: , , &amp;quot;sf mono&amp;quot; , &amp;quot;menlo&amp;quot; , &amp;quot;consolas&amp;quot; , &amp;quot;liberation mono&amp;quot; , monospace ; background-color: rgb(255 , 255 , 255)&quot;&gt;))&lt;/span&gt;&lt;/font&gt;" style="rounded=0;whiteSpace=wrap;html=1;fontSize=8;fontStyle=0" vertex="1" parent="1">
          <mxGeometry x="354" y="1810" width="120" height="60" as="geometry" />
        </mxCell>
        <mxCell id="qg9Bv7iyJqf_FRKgCrLy-17" value="" style="endArrow=none;html=1;rounded=0;fontSize=10;fontStyle=0" edge="1" parent="1" source="qg9Bv7iyJqf_FRKgCrLy-15">
          <mxGeometry width="50" height="50" relative="1" as="geometry">
            <mxPoint x="414" y="1820" as="sourcePoint" />
            <mxPoint x="414" y="1810" as="targetPoint" />
          </mxGeometry>
        </mxCell>
        <mxCell id="qg9Bv7iyJqf_FRKgCrLy-21" value="&lt;font style=&quot;font-size: 9px&quot;&gt;&lt;span class=&quot;pl-s1&quot; style=&quot;box-sizing: border-box ; color: rgb(36 , 41 , 47) ; font-family: , , &amp;quot;sf mono&amp;quot; , &amp;quot;menlo&amp;quot; , &amp;quot;consolas&amp;quot; , &amp;quot;liberation mono&amp;quot; , monospace ; background-color: rgb(255 , 255 , 255)&quot;&gt;num_ssh&lt;/span&gt;&lt;span style=&quot;color: rgb(36 , 41 , 47) ; font-family: , , &amp;quot;sf mono&amp;quot; , &amp;quot;menlo&amp;quot; , &amp;quot;consolas&amp;quot; , &amp;quot;liberation mono&amp;quot; , monospace ; background-color: rgb(255 , 255 , 255)&quot;&gt;, &lt;/span&gt;&lt;span class=&quot;pl-s1&quot; style=&quot;box-sizing: border-box ; color: rgb(36 , 41 , 47) ; font-family: , , &amp;quot;sf mono&amp;quot; , &amp;quot;menlo&amp;quot; , &amp;quot;consolas&amp;quot; , &amp;quot;liberation mono&amp;quot; , monospace ; background-color: rgb(255 , 255 , 255)&quot;&gt;num_telnet&lt;/span&gt;&lt;span style=&quot;color: rgb(36 , 41 , 47) ; font-family: , , &amp;quot;sf mono&amp;quot; , &amp;quot;menlo&amp;quot; , &amp;quot;consolas&amp;quot; , &amp;quot;liberation mono&amp;quot; , monospace ; background-color: rgb(255 , 255 , 255)&quot;&gt; &lt;/span&gt;&lt;span class=&quot;pl-c1&quot; style=&quot;box-sizing: border-box ; font-family: , , &amp;quot;sf mono&amp;quot; , &amp;quot;menlo&amp;quot; , &amp;quot;consolas&amp;quot; , &amp;quot;liberation mono&amp;quot; , monospace ; background-color: rgb(255 , 255 , 255)&quot;&gt;=&lt;/span&gt;&lt;span style=&quot;color: rgb(36 , 41 , 47) ; font-family: , , &amp;quot;sf mono&amp;quot; , &amp;quot;menlo&amp;quot; , &amp;quot;consolas&amp;quot; , &amp;quot;liberation mono&amp;quot; , monospace ; background-color: rgb(255 , 255 , 255)&quot;&gt; &lt;/span&gt;&lt;span class=&quot;pl-c1&quot; style=&quot;box-sizing: border-box ; font-family: , , &amp;quot;sf mono&amp;quot; , &amp;quot;menlo&amp;quot; , &amp;quot;consolas&amp;quot; , &amp;quot;liberation mono&amp;quot; , monospace ; background-color: rgb(255 , 255 , 255)&quot;&gt;0&lt;/span&gt;&lt;span style=&quot;color: rgb(36 , 41 , 47) ; font-family: , , &amp;quot;sf mono&amp;quot; , &amp;quot;menlo&amp;quot; , &amp;quot;consolas&amp;quot; , &amp;quot;liberation mono&amp;quot; , monospace ; background-color: rgb(255 , 255 , 255)&quot;&gt;, &lt;/span&gt;&lt;span class=&quot;pl-c1&quot; style=&quot;box-sizing: border-box ; font-family: , , &amp;quot;sf mono&amp;quot; , &amp;quot;menlo&amp;quot; , &amp;quot;consolas&amp;quot; , &amp;quot;liberation mono&amp;quot; , monospace ; background-color: rgb(255 , 255 , 255)&quot;&gt;0&lt;/span&gt;&lt;/font&gt;" style="rounded=0;whiteSpace=wrap;html=1;fontSize=10;fontStyle=0" vertex="1" parent="1">
          <mxGeometry x="354" y="1950" width="120" height="60" as="geometry" />
        </mxCell>
        <mxCell id="qg9Bv7iyJqf_FRKgCrLy-48" style="edgeStyle=orthogonalEdgeStyle;rounded=0;orthogonalLoop=1;jettySize=auto;html=1;exitX=1;exitY=0.5;exitDx=0;exitDy=0;fontSize=10;entryX=0.534;entryY=0.012;entryDx=0;entryDy=0;entryPerimeter=0;fontStyle=0" edge="1" parent="1" source="qg9Bv7iyJqf_FRKgCrLy-23" target="qg9Bv7iyJqf_FRKgCrLy-46">
          <mxGeometry relative="1" as="geometry">
            <Array as="points">
              <mxPoint x="680" y="2080" />
              <mxPoint x="680" y="2780" />
              <mxPoint x="422" y="2780" />
            </Array>
          </mxGeometry>
        </mxCell>
        <mxCell id="qg9Bv7iyJqf_FRKgCrLy-23" value="&lt;span class=&quot;pl-k&quot; style=&quot;box-sizing: border-box ; font-family: , , &amp;quot;sf mono&amp;quot; , &amp;quot;menlo&amp;quot; , &amp;quot;consolas&amp;quot; , &amp;quot;liberation mono&amp;quot; , monospace ; font-size: 12px ; background-color: rgb(255 , 255 , 255)&quot;&gt;for&lt;/span&gt;&lt;span style=&quot;color: rgb(36 , 41 , 47) ; font-family: , , &amp;quot;sf mono&amp;quot; , &amp;quot;menlo&amp;quot; , &amp;quot;consolas&amp;quot; , &amp;quot;liberation mono&amp;quot; , monospace ; font-size: 12px ; background-color: rgb(255 , 255 , 255)&quot;&gt; &lt;/span&gt;&lt;span class=&quot;pl-s1&quot; style=&quot;box-sizing: border-box ; color: rgb(36 , 41 , 47) ; font-family: , , &amp;quot;sf mono&amp;quot; , &amp;quot;menlo&amp;quot; , &amp;quot;consolas&amp;quot; , &amp;quot;liberation mono&amp;quot; , monospace ; font-size: 12px ; background-color: rgb(255 , 255 , 255)&quot;&gt;event&lt;/span&gt;&lt;span style=&quot;color: rgb(36 , 41 , 47) ; font-family: , , &amp;quot;sf mono&amp;quot; , &amp;quot;menlo&amp;quot; , &amp;quot;consolas&amp;quot; , &amp;quot;liberation mono&amp;quot; , monospace ; font-size: 12px ; background-color: rgb(255 , 255 , 255)&quot;&gt; &lt;/span&gt;&lt;span class=&quot;pl-c1&quot; style=&quot;box-sizing: border-box ; font-family: , , &amp;quot;sf mono&amp;quot; , &amp;quot;menlo&amp;quot; , &amp;quot;consolas&amp;quot; , &amp;quot;liberation mono&amp;quot; , monospace ; font-size: 12px ; background-color: rgb(255 , 255 , 255)&quot;&gt;in&lt;/span&gt;&lt;span style=&quot;color: rgb(36 , 41 , 47) ; font-family: , , &amp;quot;sf mono&amp;quot; , &amp;quot;menlo&amp;quot; , &amp;quot;consolas&amp;quot; , &amp;quot;liberation mono&amp;quot; , monospace ; font-size: 12px ; background-color: rgb(255 , 255 , 255)&quot;&gt; &lt;/span&gt;&lt;span class=&quot;pl-s1&quot; style=&quot;box-sizing: border-box ; color: rgb(36 , 41 , 47) ; font-family: , , &amp;quot;sf mono&amp;quot; , &amp;quot;menlo&amp;quot; , &amp;quot;consolas&amp;quot; , &amp;quot;liberation mono&amp;quot; , monospace ; font-size: 12px ; background-color: rgb(255 , 255 , 255)&quot;&gt;total_contents&lt;/span&gt;&lt;span style=&quot;color: rgb(36 , 41 , 47) ; font-family: , , &amp;quot;sf mono&amp;quot; , &amp;quot;menlo&amp;quot; , &amp;quot;consolas&amp;quot; , &amp;quot;liberation mono&amp;quot; , monospace ; font-size: 12px ; background-color: rgb(255 , 255 , 255)&quot;&gt;:&lt;/span&gt;" style="shape=hexagon;perimeter=hexagonPerimeter2;whiteSpace=wrap;html=1;fixedSize=1;fontSize=9;fontStyle=0" vertex="1" parent="1">
          <mxGeometry x="354" y="2040" width="120" height="80" as="geometry" />
        </mxCell>
        <mxCell id="qg9Bv7iyJqf_FRKgCrLy-24" value="if &#39;cowrie.login&#39; in event[&#39;eventid&#39;]:" style="rhombus;whiteSpace=wrap;html=1;fontSize=9;fontStyle=0" vertex="1" parent="1">
          <mxGeometry x="357" y="2140" width="114" height="80" as="geometry" />
        </mxCell>
        <mxCell id="qg9Bv7iyJqf_FRKgCrLy-26" value="if &#39;SSH&#39; in event[&#39;system&#39;]:" style="rhombus;whiteSpace=wrap;html=1;fontSize=9;fontStyle=0" vertex="1" parent="1">
          <mxGeometry x="357" y="2248" width="114" height="90" as="geometry" />
        </mxCell>
        <mxCell id="qg9Bv7iyJqf_FRKgCrLy-27" value="Да" style="text;html=1;align=center;verticalAlign=middle;resizable=0;points=[];autosize=1;strokeColor=none;fillColor=none;fontSize=9;fontStyle=0" vertex="1" parent="1">
          <mxGeometry x="415" y="2230" width="30" height="20" as="geometry" />
        </mxCell>
        <mxCell id="qg9Bv7iyJqf_FRKgCrLy-28" value="Нет" style="text;html=1;align=center;verticalAlign=middle;resizable=0;points=[];autosize=1;strokeColor=none;fillColor=none;fontSize=9;fontStyle=0" vertex="1" parent="1">
          <mxGeometry x="477" y="2160" width="30" height="20" as="geometry" />
        </mxCell>
        <mxCell id="qg9Bv7iyJqf_FRKgCrLy-29" value="&lt;span style=&quot;color: rgb(36 , 41 , 47) ; font-family: , , &amp;quot;sf mono&amp;quot; , &amp;quot;menlo&amp;quot; , &amp;quot;consolas&amp;quot; , &amp;quot;liberation mono&amp;quot; , monospace ; background-color: rgb(255 , 255 , 255)&quot;&gt; &lt;/span&gt;&lt;font style=&quot;font-size: 10px&quot;&gt;&lt;span class=&quot;pl-k&quot; style=&quot;box-sizing: border-box ; font-family: , , &amp;quot;sf mono&amp;quot; , &amp;quot;menlo&amp;quot; , &amp;quot;consolas&amp;quot; , &amp;quot;liberation mono&amp;quot; , monospace ; background-color: rgb(255 , 255 , 255)&quot;&gt;elif&lt;/span&gt;&lt;span style=&quot;color: rgb(36 , 41 , 47) ; font-family: , , &amp;quot;sf mono&amp;quot; , &amp;quot;menlo&amp;quot; , &amp;quot;consolas&amp;quot; , &amp;quot;liberation mono&amp;quot; , monospace ; background-color: rgb(255 , 255 , 255)&quot;&gt; &lt;/span&gt;&lt;span class=&quot;pl-s&quot; style=&quot;box-sizing: border-box ; font-family: , , &amp;quot;sf mono&amp;quot; , &amp;quot;menlo&amp;quot; , &amp;quot;consolas&amp;quot; , &amp;quot;liberation mono&amp;quot; , monospace ; background-color: rgb(255 , 255 , 255)&quot;&gt;&#39;Telnet&#39;&lt;/span&gt;&lt;span style=&quot;color: rgb(36 , 41 , 47) ; font-family: , , &amp;quot;sf mono&amp;quot; , &amp;quot;menlo&amp;quot; , &amp;quot;consolas&amp;quot; , &amp;quot;liberation mono&amp;quot; , monospace ; background-color: rgb(255 , 255 , 255)&quot;&gt; &lt;/span&gt;&lt;span class=&quot;pl-c1&quot; style=&quot;box-sizing: border-box ; font-family: , , &amp;quot;sf mono&amp;quot; , &amp;quot;menlo&amp;quot; , &amp;quot;consolas&amp;quot; , &amp;quot;liberation mono&amp;quot; , monospace ; background-color: rgb(255 , 255 , 255)&quot;&gt;in&lt;/span&gt;&lt;span style=&quot;color: rgb(36 , 41 , 47) ; font-family: , , &amp;quot;sf mono&amp;quot; , &amp;quot;menlo&amp;quot; , &amp;quot;consolas&amp;quot; , &amp;quot;liberation mono&amp;quot; , monospace ; background-color: rgb(255 , 255 , 255)&quot;&gt; &lt;/span&gt;&lt;span class=&quot;pl-s1&quot; style=&quot;box-sizing: border-box ; color: rgb(36 , 41 , 47) ; font-family: , , &amp;quot;sf mono&amp;quot; , &amp;quot;menlo&amp;quot; , &amp;quot;consolas&amp;quot; , &amp;quot;liberation mono&amp;quot; , monospace ; background-color: rgb(255 , 255 , 255)&quot;&gt;event&lt;/span&gt;&lt;span style=&quot;color: rgb(36 , 41 , 47) ; font-family: , , &amp;quot;sf mono&amp;quot; , &amp;quot;menlo&amp;quot; , &amp;quot;consolas&amp;quot; , &amp;quot;liberation mono&amp;quot; , monospace ; background-color: rgb(255 , 255 , 255)&quot;&gt;[&lt;/span&gt;&lt;span class=&quot;pl-s&quot; style=&quot;box-sizing: border-box ; font-family: , , &amp;quot;sf mono&amp;quot; , &amp;quot;menlo&amp;quot; , &amp;quot;consolas&amp;quot; , &amp;quot;liberation mono&amp;quot; , monospace ; background-color: rgb(255 , 255 , 255)&quot;&gt;&#39;system&#39;&lt;/span&gt;&lt;span style=&quot;color: rgb(36 , 41 , 47) ; font-family: , , &amp;quot;sf mono&amp;quot; , &amp;quot;menlo&amp;quot; , &amp;quot;consolas&amp;quot; , &amp;quot;liberation mono&amp;quot; , monospace ; background-color: rgb(255 , 255 , 255)&quot;&gt;]:&lt;/span&gt;&lt;/font&gt;" style="rhombus;whiteSpace=wrap;html=1;fontSize=9;fontStyle=0" vertex="1" parent="1">
          <mxGeometry x="357" y="2450" width="114" height="80" as="geometry" />
        </mxCell>
        <mxCell id="qg9Bv7iyJqf_FRKgCrLy-30" value="&lt;div style=&quot;text-align: left ; font-size: 8px&quot;&gt;&lt;font style=&quot;font-size: 8px&quot;&gt;num_ssh += 1&lt;/font&gt;&lt;/div&gt;&lt;div style=&quot;text-align: left ; font-size: 8px&quot;&gt;&lt;font style=&quot;font-size: 8px&quot;&gt;time = bin_by_hours(parse(event [&#39;timestamp&#39;]), 24)&lt;/font&gt;&lt;/div&gt;&lt;div style=&quot;text-align: left ; font-size: 8px&quot;&gt;&lt;font style=&quot;font-size: 8px&quot;&gt;&lt;span style=&quot;color: rgb(36 , 41 , 47) ; font-family: , , &amp;quot;sf mono&amp;quot; , &amp;quot;menlo&amp;quot; , &amp;quot;consolas&amp;quot; , &amp;quot;liberation mono&amp;quot; , monospace ; background-color: rgb(255 , 255 , 255)&quot;&gt; &lt;/span&gt;&lt;span class=&quot;pl-s1&quot; style=&quot;box-sizing: border-box ; color: rgb(36 , 41 , 47) ; font-family: , , &amp;quot;sf mono&amp;quot; , &amp;quot;menlo&amp;quot; , &amp;quot;consolas&amp;quot; , &amp;quot;liberation mono&amp;quot; , monospace ; background-color: rgb(255 , 255 , 255)&quot;&gt;self&lt;/span&gt;&lt;span style=&quot;color: rgb(36 , 41 , 47) ; font-family: , , &amp;quot;sf mono&amp;quot; , &amp;quot;menlo&amp;quot; , &amp;quot;consolas&amp;quot; , &amp;quot;liberation mono&amp;quot; , monospace ; background-color: rgb(255 , 255 , 255)&quot;&gt;.&lt;/span&gt;&lt;span class=&quot;pl-s1&quot; style=&quot;box-sizing: border-box ; color: rgb(36 , 41 , 47) ; font-family: , , &amp;quot;sf mono&amp;quot; , &amp;quot;menlo&amp;quot; , &amp;quot;consolas&amp;quot; , &amp;quot;liberation mono&amp;quot; , monospace ; background-color: rgb(255 , 255 , 255)&quot;&gt;ssh_times_cnt&lt;/span&gt;&lt;span style=&quot;color: rgb(36 , 41 , 47) ; font-family: , , &amp;quot;sf mono&amp;quot; , &amp;quot;menlo&amp;quot; , &amp;quot;consolas&amp;quot; , &amp;quot;liberation mono&amp;quot; , monospace ; background-color: rgb(255 , 255 , 255)&quot;&gt;[&lt;/span&gt;&lt;span class=&quot;pl-s1&quot; style=&quot;box-sizing: border-box ; color: rgb(36 , 41 , 47) ; font-family: , , &amp;quot;sf mono&amp;quot; , &amp;quot;menlo&amp;quot; , &amp;quot;consolas&amp;quot; , &amp;quot;liberation mono&amp;quot; , monospace ; background-color: rgb(255 , 255 , 255)&quot;&gt;time&lt;/span&gt;&lt;span style=&quot;color: rgb(36 , 41 , 47) ; font-family: , , &amp;quot;sf mono&amp;quot; , &amp;quot;menlo&amp;quot; , &amp;quot;consolas&amp;quot; , &amp;quot;liberation mono&amp;quot; , monospace ; background-color: rgb(255 , 255 , 255)&quot;&gt;] &lt;/span&gt;&lt;span class=&quot;pl-c1&quot; style=&quot;box-sizing: border-box ; font-family: , , &amp;quot;sf mono&amp;quot; , &amp;quot;menlo&amp;quot; , &amp;quot;consolas&amp;quot; , &amp;quot;liberation mono&amp;quot; , monospace ; background-color: rgb(255 , 255 , 255)&quot;&gt;+=&lt;/span&gt;&lt;span style=&quot;color: rgb(36 , 41 , 47) ; font-family: , , &amp;quot;sf mono&amp;quot; , &amp;quot;menlo&amp;quot; , &amp;quot;consolas&amp;quot; , &amp;quot;liberation mono&amp;quot; , monospace ; background-color: rgb(255 , 255 , 255)&quot;&gt; &lt;/span&gt;&lt;span class=&quot;pl-c1&quot; style=&quot;box-sizing: border-box ; font-family: , , &amp;quot;sf mono&amp;quot; , &amp;quot;menlo&amp;quot; , &amp;quot;consolas&amp;quot; , &amp;quot;liberation mono&amp;quot; , monospace ; background-color: rgb(255 , 255 , 255)&quot;&gt;1&lt;/span&gt;&lt;/font&gt;&lt;br&gt;&lt;/div&gt;" style="rounded=0;whiteSpace=wrap;html=1;fontSize=9;fontStyle=0" vertex="1" parent="1">
          <mxGeometry x="354" y="2360" width="120" height="60" as="geometry" />
        </mxCell>
        <mxCell id="qg9Bv7iyJqf_FRKgCrLy-31" value="" style="endArrow=none;html=1;rounded=0;fontSize=9;fontStyle=0" edge="1" parent="1" source="qg9Bv7iyJqf_FRKgCrLy-26">
          <mxGeometry width="50" height="50" relative="1" as="geometry">
            <mxPoint x="414" y="2388" as="sourcePoint" />
            <mxPoint x="414" y="2360" as="targetPoint" />
          </mxGeometry>
        </mxCell>
        <mxCell id="qg9Bv7iyJqf_FRKgCrLy-33" value="" style="endArrow=none;html=1;rounded=0;fontSize=9;entryX=0.5;entryY=1;entryDx=0;entryDy=0;fontStyle=0" edge="1" parent="1" target="qg9Bv7iyJqf_FRKgCrLy-24">
          <mxGeometry width="50" height="50" relative="1" as="geometry">
            <mxPoint x="414" y="2250" as="sourcePoint" />
            <mxPoint x="200" y="2250" as="targetPoint" />
          </mxGeometry>
        </mxCell>
        <mxCell id="qg9Bv7iyJqf_FRKgCrLy-34" value="Да" style="text;html=1;align=center;verticalAlign=middle;resizable=0;points=[];autosize=1;strokeColor=none;fillColor=none;fontSize=9;fontStyle=0" vertex="1" parent="1">
          <mxGeometry x="419" y="2338" width="30" height="20" as="geometry" />
        </mxCell>
        <mxCell id="qg9Bv7iyJqf_FRKgCrLy-36" value="&lt;div&gt;num_telnet += 1&lt;/div&gt;&lt;div&gt;time = bin_by_hours(parse(event[&#39;timestamp&#39;]), 24)&lt;/div&gt;&lt;div&gt;self.telnet_times_cnt[time] += 1&lt;/div&gt;" style="rounded=0;whiteSpace=wrap;html=1;fontSize=10;align=left;fontStyle=0" vertex="1" parent="1">
          <mxGeometry x="321" y="2550" width="186" height="80" as="geometry" />
        </mxCell>
        <mxCell id="qg9Bv7iyJqf_FRKgCrLy-37" value="" style="endArrow=none;html=1;rounded=0;fontSize=10;entryX=0.5;entryY=0;entryDx=0;entryDy=0;fontStyle=0" edge="1" parent="1" source="qg9Bv7iyJqf_FRKgCrLy-26" target="qg9Bv7iyJqf_FRKgCrLy-29">
          <mxGeometry width="50" height="50" relative="1" as="geometry">
            <mxPoint x="471" y="2343" as="sourcePoint" />
            <mxPoint x="560" y="2500" as="targetPoint" />
            <Array as="points">
              <mxPoint x="580" y="2293" />
              <mxPoint x="580" y="2430" />
              <mxPoint x="414" y="2430" />
            </Array>
          </mxGeometry>
        </mxCell>
        <mxCell id="qg9Bv7iyJqf_FRKgCrLy-38" value="Нет" style="text;html=1;align=center;verticalAlign=middle;resizable=0;points=[];autosize=1;strokeColor=none;fillColor=none;fontSize=10;fontStyle=0" vertex="1" parent="1">
          <mxGeometry x="485" y="2270" width="30" height="20" as="geometry" />
        </mxCell>
        <mxCell id="qg9Bv7iyJqf_FRKgCrLy-40" value="" style="endArrow=none;html=1;rounded=0;fontSize=10;exitX=0.5;exitY=0;exitDx=0;exitDy=0;entryX=0.5;entryY=1;entryDx=0;entryDy=0;fontStyle=0" edge="1" parent="1" source="qg9Bv7iyJqf_FRKgCrLy-36" target="qg9Bv7iyJqf_FRKgCrLy-29">
          <mxGeometry width="50" height="50" relative="1" as="geometry">
            <mxPoint x="200" y="2490" as="sourcePoint" />
            <mxPoint x="250" y="2440" as="targetPoint" />
          </mxGeometry>
        </mxCell>
        <mxCell id="qg9Bv7iyJqf_FRKgCrLy-47" style="edgeStyle=orthogonalEdgeStyle;rounded=0;orthogonalLoop=1;jettySize=auto;html=1;exitX=0.5;exitY=1;exitDx=0;exitDy=0;entryX=0;entryY=0.5;entryDx=0;entryDy=0;fontSize=10;fontStyle=0" edge="1" parent="1" source="qg9Bv7iyJqf_FRKgCrLy-42" target="qg9Bv7iyJqf_FRKgCrLy-23">
          <mxGeometry relative="1" as="geometry">
            <Array as="points">
              <mxPoint x="414" y="2760" />
              <mxPoint x="220" y="2760" />
              <mxPoint x="220" y="2080" />
            </Array>
          </mxGeometry>
        </mxCell>
        <mxCell id="qg9Bv7iyJqf_FRKgCrLy-42" value="&lt;div&gt;self.src_ip_cnt[event[&#39;src_ip&#39;]] += 1&lt;/div&gt;&lt;div&gt;self.username_cnt[event[&#39;username&#39;]] += 1&lt;/div&gt;&lt;div&gt;self.pass_cnt[event[&#39;password&#39;]] += 1&lt;/div&gt;&lt;div&gt;self.userpass_cnt[event[&#39;username&#39;] + &#39;:&#39; + event[&#39;password&#39;]] += 1&lt;/div&gt;" style="rounded=0;whiteSpace=wrap;html=1;fontSize=10;align=left;fontStyle=0" vertex="1" parent="1">
          <mxGeometry x="316" y="2670" width="196" height="70" as="geometry" />
        </mxCell>
        <mxCell id="qg9Bv7iyJqf_FRKgCrLy-44" value="" style="endArrow=none;html=1;rounded=0;fontSize=10;entryX=0.5;entryY=0;entryDx=0;entryDy=0;fontStyle=0" edge="1" parent="1" source="qg9Bv7iyJqf_FRKgCrLy-29" target="qg9Bv7iyJqf_FRKgCrLy-42">
          <mxGeometry width="50" height="50" relative="1" as="geometry">
            <mxPoint x="471" y="2540" as="sourcePoint" />
            <mxPoint x="390" y="2650" as="targetPoint" />
            <Array as="points">
              <mxPoint x="580" y="2490" />
              <mxPoint x="580" y="2650" />
              <mxPoint x="414" y="2650" />
            </Array>
          </mxGeometry>
        </mxCell>
        <mxCell id="qg9Bv7iyJqf_FRKgCrLy-45" value="Нет" style="text;html=1;align=center;verticalAlign=middle;resizable=0;points=[];autosize=1;strokeColor=none;fillColor=none;fontSize=10;fontStyle=0" vertex="1" parent="1">
          <mxGeometry x="495" y="2470" width="30" height="20" as="geometry" />
        </mxCell>
        <mxCell id="qg9Bv7iyJqf_FRKgCrLy-46" value="&lt;div&gt;print(&#39;telnet attempts: &#39; + str(num_telnet))&lt;/div&gt;&lt;div&gt;print(&#39;SSH attempts:&#39; + str(num_ssh))&lt;/div&gt;&lt;div&gt;print(&#39;most common source addresses:&#39;)&lt;/div&gt;" style="shape=parallelogram;perimeter=parallelogramPerimeter;whiteSpace=wrap;html=1;fixedSize=1;fontSize=10;align=center;fontStyle=0" vertex="1" parent="1">
          <mxGeometry x="304" y="2800" width="220" height="80" as="geometry" />
        </mxCell>
        <mxCell id="qg9Bv7iyJqf_FRKgCrLy-49" value="" style="endArrow=none;html=1;rounded=0;fontSize=10;exitX=0.5;exitY=0;exitDx=0;exitDy=0;entryX=0.5;entryY=1;entryDx=0;entryDy=0;fontStyle=0" edge="1" parent="1" source="qg9Bv7iyJqf_FRKgCrLy-24" target="qg9Bv7iyJqf_FRKgCrLy-23">
          <mxGeometry width="50" height="50" relative="1" as="geometry">
            <mxPoint x="260" y="2170" as="sourcePoint" />
            <mxPoint x="310" y="2120" as="targetPoint" />
          </mxGeometry>
        </mxCell>
        <mxCell id="qg9Bv7iyJqf_FRKgCrLy-51" value="" style="endArrow=none;html=1;rounded=0;fontSize=10;exitX=1;exitY=0.5;exitDx=0;exitDy=0;fontStyle=0" edge="1" parent="1" source="qg9Bv7iyJqf_FRKgCrLy-24">
          <mxGeometry width="50" height="50" relative="1" as="geometry">
            <mxPoint x="540" y="2240" as="sourcePoint" />
            <mxPoint x="580" y="2650" as="targetPoint" />
            <Array as="points">
              <mxPoint x="630" y="2180" />
              <mxPoint x="640" y="2650" />
            </Array>
          </mxGeometry>
        </mxCell>
        <mxCell id="qg9Bv7iyJqf_FRKgCrLy-52" value="" style="endArrow=none;html=1;rounded=0;fontSize=10;fontStyle=0" edge="1" parent="1" source="qg9Bv7iyJqf_FRKgCrLy-46">
          <mxGeometry width="50" height="50" relative="1" as="geometry">
            <mxPoint x="414" y="2930" as="sourcePoint" />
            <mxPoint x="414" y="2920" as="targetPoint" />
          </mxGeometry>
        </mxCell>
        <mxCell id="qg9Bv7iyJqf_FRKgCrLy-59" style="edgeStyle=orthogonalEdgeStyle;rounded=0;orthogonalLoop=1;jettySize=auto;html=1;exitX=1;exitY=0.5;exitDx=0;exitDy=0;entryX=0.5;entryY=0;entryDx=0;entryDy=0;fontSize=10;fontStyle=0" edge="1" parent="1" source="qg9Bv7iyJqf_FRKgCrLy-53" target="qg9Bv7iyJqf_FRKgCrLy-69">
          <mxGeometry relative="1" as="geometry">
            <Array as="points">
              <mxPoint x="527" y="2954" />
              <mxPoint x="527" y="3110" />
              <mxPoint x="409" y="3110" />
            </Array>
          </mxGeometry>
        </mxCell>
        <mxCell id="qg9Bv7iyJqf_FRKgCrLy-53" value="&lt;div&gt;&lt;font face=&quot;ui-monospace, SFMono-Regular, SF Mono, Menlo, Consolas, Liberation Mono, monospace&quot; size=&quot;1&quot;&gt;&lt;span style=&quot;background-color: rgb(255 , 255 , 255)&quot;&gt;for addr in sorted(self.src_ip_cnt.items(), key=operator.itemgetter(1), reverse=True)[:10]:&lt;/span&gt;&lt;/font&gt;&lt;/div&gt;" style="shape=hexagon;perimeter=hexagonPerimeter2;whiteSpace=wrap;html=1;fixedSize=1;fontSize=10;fontStyle=0" vertex="1" parent="1">
          <mxGeometry x="321" y="2910" width="186" height="87" as="geometry" />
        </mxCell>
        <mxCell id="qg9Bv7iyJqf_FRKgCrLy-57" style="edgeStyle=orthogonalEdgeStyle;rounded=0;orthogonalLoop=1;jettySize=auto;html=1;exitX=0.5;exitY=1;exitDx=0;exitDy=0;entryX=0;entryY=0.5;entryDx=0;entryDy=0;fontSize=10;fontStyle=0" edge="1" parent="1" source="qg9Bv7iyJqf_FRKgCrLy-54" target="qg9Bv7iyJqf_FRKgCrLy-53">
          <mxGeometry relative="1" as="geometry">
            <Array as="points">
              <mxPoint x="414" y="3100" />
              <mxPoint x="301" y="3100" />
              <mxPoint x="301" y="2954" />
            </Array>
          </mxGeometry>
        </mxCell>
        <mxCell id="qg9Bv7iyJqf_FRKgCrLy-54" value="&lt;span class=&quot;pl-en&quot; style=&quot;box-sizing: border-box ; font-family: , , &amp;quot;sf mono&amp;quot; , &amp;quot;menlo&amp;quot; , &amp;quot;consolas&amp;quot; , &amp;quot;liberation mono&amp;quot; , monospace ; font-size: 12px ; background-color: rgb(255 , 255 , 255)&quot;&gt;print&lt;/span&gt;&lt;span style=&quot;color: rgb(36 , 41 , 47) ; font-family: , , &amp;quot;sf mono&amp;quot; , &amp;quot;menlo&amp;quot; , &amp;quot;consolas&amp;quot; , &amp;quot;liberation mono&amp;quot; , monospace ; font-size: 12px ; background-color: rgb(255 , 255 , 255)&quot;&gt;(&lt;/span&gt;&lt;span class=&quot;pl-s1&quot; style=&quot;box-sizing: border-box ; color: rgb(36 , 41 , 47) ; font-family: , , &amp;quot;sf mono&amp;quot; , &amp;quot;menlo&amp;quot; , &amp;quot;consolas&amp;quot; , &amp;quot;liberation mono&amp;quot; , monospace ; font-size: 12px ; background-color: rgb(255 , 255 , 255)&quot;&gt;addr&lt;/span&gt;&lt;span style=&quot;color: rgb(36 , 41 , 47) ; font-family: , , &amp;quot;sf mono&amp;quot; , &amp;quot;menlo&amp;quot; , &amp;quot;consolas&amp;quot; , &amp;quot;liberation mono&amp;quot; , monospace ; font-size: 12px ; background-color: rgb(255 , 255 , 255)&quot;&gt;)&lt;/span&gt;" style="shape=parallelogram;perimeter=parallelogramPerimeter;whiteSpace=wrap;html=1;fixedSize=1;fontSize=10;fontStyle=0" vertex="1" parent="1">
          <mxGeometry x="354" y="3030" width="120" height="60" as="geometry" />
        </mxCell>
        <mxCell id="qg9Bv7iyJqf_FRKgCrLy-60" style="edgeStyle=orthogonalEdgeStyle;rounded=0;orthogonalLoop=1;jettySize=auto;html=1;entryX=0.5;entryY=0;entryDx=0;entryDy=0;fontSize=10;fontStyle=0" edge="1" parent="1" source="qg9Bv7iyJqf_FRKgCrLy-55" target="qg9Bv7iyJqf_FRKgCrLy-56">
          <mxGeometry relative="1" as="geometry" />
        </mxCell>
        <mxCell id="qg9Bv7iyJqf_FRKgCrLy-62" style="edgeStyle=orthogonalEdgeStyle;rounded=0;orthogonalLoop=1;jettySize=auto;html=1;exitX=1;exitY=0.5;exitDx=0;exitDy=0;fontSize=10;entryX=0.5;entryY=0;entryDx=0;entryDy=0;fontStyle=0" edge="1" parent="1" source="qg9Bv7iyJqf_FRKgCrLy-55" target="qg9Bv7iyJqf_FRKgCrLy-63">
          <mxGeometry relative="1" as="geometry">
            <mxPoint x="409" y="3440" as="targetPoint" />
            <Array as="points">
              <mxPoint x="522" y="3254" />
              <mxPoint x="522" y="3440" />
              <mxPoint x="400" y="3440" />
            </Array>
          </mxGeometry>
        </mxCell>
        <mxCell id="qg9Bv7iyJqf_FRKgCrLy-55" value="&lt;font face=&quot;ui-monospace, SFMono-Regular, SF Mono, Menlo, Consolas, Liberation Mono, monospace&quot; size=&quot;1&quot;&gt;for user in sorted(self.username_cnt.items(), key=operator.itemgetter(1), reverse=True)[:30]:&lt;/font&gt;" style="shape=hexagon;perimeter=hexagonPerimeter2;whiteSpace=wrap;html=1;fixedSize=1;fontSize=10;fontStyle=0" vertex="1" parent="1">
          <mxGeometry x="317" y="3220" width="186" height="87" as="geometry" />
        </mxCell>
        <mxCell id="qg9Bv7iyJqf_FRKgCrLy-61" style="edgeStyle=orthogonalEdgeStyle;rounded=0;orthogonalLoop=1;jettySize=auto;html=1;exitX=0.5;exitY=1;exitDx=0;exitDy=0;entryX=0;entryY=0.5;entryDx=0;entryDy=0;fontSize=10;fontStyle=0" edge="1" parent="1" source="qg9Bv7iyJqf_FRKgCrLy-56" target="qg9Bv7iyJqf_FRKgCrLy-55">
          <mxGeometry relative="1" as="geometry">
            <Array as="points">
              <mxPoint x="410" y="3420" />
              <mxPoint x="297" y="3420" />
              <mxPoint x="297" y="3264" />
            </Array>
          </mxGeometry>
        </mxCell>
        <mxCell id="qg9Bv7iyJqf_FRKgCrLy-56" value="&lt;span class=&quot;pl-en&quot; style=&quot;box-sizing: border-box ; font-family: , , &amp;quot;sf mono&amp;quot; , &amp;quot;menlo&amp;quot; , &amp;quot;consolas&amp;quot; , &amp;quot;liberation mono&amp;quot; , monospace ; font-size: 12px ; background-color: rgb(255 , 255 , 255)&quot;&gt;print&lt;/span&gt;&lt;span style=&quot;color: rgb(36 , 41 , 47) ; font-family: , , &amp;quot;sf mono&amp;quot; , &amp;quot;menlo&amp;quot; , &amp;quot;consolas&amp;quot; , &amp;quot;liberation mono&amp;quot; , monospace ; font-size: 12px ; background-color: rgb(255 , 255 , 255)&quot;&gt;(&lt;/span&gt;&lt;span class=&quot;pl-s1&quot; style=&quot;box-sizing: border-box ; color: rgb(36 , 41 , 47) ; font-family: , , &amp;quot;sf mono&amp;quot; , &amp;quot;menlo&amp;quot; , &amp;quot;consolas&amp;quot; , &amp;quot;liberation mono&amp;quot; , monospace ; font-size: 12px ; background-color: rgb(255 , 255 , 255)&quot;&gt;user&lt;/span&gt;&lt;span style=&quot;color: rgb(36 , 41 , 47) ; font-family: , , &amp;quot;sf mono&amp;quot; , &amp;quot;menlo&amp;quot; , &amp;quot;consolas&amp;quot; , &amp;quot;liberation mono&amp;quot; , monospace ; font-size: 12px ; background-color: rgb(255 , 255 , 255)&quot;&gt;)&lt;/span&gt;" style="shape=parallelogram;perimeter=parallelogramPerimeter;whiteSpace=wrap;html=1;fixedSize=1;fontSize=10;fontStyle=0" vertex="1" parent="1">
          <mxGeometry x="350" y="3340" width="120" height="60" as="geometry" />
        </mxCell>
        <mxCell id="qg9Bv7iyJqf_FRKgCrLy-58" value="" style="endArrow=none;html=1;rounded=0;fontSize=10;exitX=0.5;exitY=0;exitDx=0;exitDy=0;entryX=0.5;entryY=1;entryDx=0;entryDy=0;fontStyle=0" edge="1" parent="1" source="qg9Bv7iyJqf_FRKgCrLy-54" target="qg9Bv7iyJqf_FRKgCrLy-53">
          <mxGeometry width="50" height="50" relative="1" as="geometry">
            <mxPoint x="110" y="3050" as="sourcePoint" />
            <mxPoint x="160" y="3000" as="targetPoint" />
          </mxGeometry>
        </mxCell>
        <mxCell id="qg9Bv7iyJqf_FRKgCrLy-63" value="&lt;font style=&quot;font-size: 10px&quot;&gt;&lt;span class=&quot;pl-en&quot; style=&quot;box-sizing: border-box ; font-family: , , &amp;quot;sf mono&amp;quot; , &amp;quot;menlo&amp;quot; , &amp;quot;consolas&amp;quot; , &amp;quot;liberation mono&amp;quot; , monospace ; background-color: rgb(255 , 255 , 255)&quot;&gt;print&lt;/span&gt;&lt;span style=&quot;color: rgb(36 , 41 , 47) ; font-family: , , &amp;quot;sf mono&amp;quot; , &amp;quot;menlo&amp;quot; , &amp;quot;consolas&amp;quot; , &amp;quot;liberation mono&amp;quot; , monospace ; background-color: rgb(255 , 255 , 255)&quot;&gt;(&lt;/span&gt;&lt;span class=&quot;pl-s&quot; style=&quot;box-sizing: border-box ; font-family: , , &amp;quot;sf mono&amp;quot; , &amp;quot;menlo&amp;quot; , &amp;quot;consolas&amp;quot; , &amp;quot;liberation mono&amp;quot; , monospace ; background-color: rgb(255 , 255 , 255)&quot;&gt;&#39;most common password attempts:&#39;&lt;/span&gt;&lt;span style=&quot;color: rgb(36 , 41 , 47) ; font-family: , , &amp;quot;sf mono&amp;quot; , &amp;quot;menlo&amp;quot; , &amp;quot;consolas&amp;quot; , &amp;quot;liberation mono&amp;quot; , monospace ; background-color: rgb(255 , 255 , 255)&quot;&gt;)&lt;/span&gt;&lt;/font&gt;" style="shape=parallelogram;perimeter=parallelogramPerimeter;whiteSpace=wrap;html=1;fixedSize=1;fontSize=10;fontStyle=0" vertex="1" parent="1">
          <mxGeometry x="340" y="3460" width="120" height="60" as="geometry" />
        </mxCell>
        <mxCell id="qg9Bv7iyJqf_FRKgCrLy-64" style="edgeStyle=orthogonalEdgeStyle;rounded=0;orthogonalLoop=1;jettySize=auto;html=1;entryX=0.5;entryY=0;entryDx=0;entryDy=0;fontSize=10;fontStyle=0" edge="1" parent="1" source="qg9Bv7iyJqf_FRKgCrLy-65" target="qg9Bv7iyJqf_FRKgCrLy-67">
          <mxGeometry relative="1" as="geometry" />
        </mxCell>
        <mxCell id="qg9Bv7iyJqf_FRKgCrLy-72" style="edgeStyle=orthogonalEdgeStyle;rounded=0;orthogonalLoop=1;jettySize=auto;html=1;exitX=1;exitY=0.5;exitDx=0;exitDy=0;entryX=0.5;entryY=0;entryDx=0;entryDy=0;fontSize=10;fontStyle=0" edge="1" parent="1" source="qg9Bv7iyJqf_FRKgCrLy-65" target="qg9Bv7iyJqf_FRKgCrLy-71">
          <mxGeometry relative="1" as="geometry">
            <Array as="points">
              <mxPoint x="512" y="3584" />
              <mxPoint x="512" y="3760" />
              <mxPoint x="399" y="3760" />
            </Array>
          </mxGeometry>
        </mxCell>
        <mxCell id="qg9Bv7iyJqf_FRKgCrLy-65" value="&lt;font style=&quot;font-size: 9px&quot;&gt;&lt;span class=&quot;pl-k&quot; style=&quot;box-sizing: border-box ; font-family: , , &amp;quot;sf mono&amp;quot; , &amp;quot;menlo&amp;quot; , &amp;quot;consolas&amp;quot; , &amp;quot;liberation mono&amp;quot; , monospace ; background-color: rgb(255 , 255 , 255)&quot;&gt;for&lt;/span&gt;&lt;span style=&quot;color: rgb(36 , 41 , 47) ; font-family: , , &amp;quot;sf mono&amp;quot; , &amp;quot;menlo&amp;quot; , &amp;quot;consolas&amp;quot; , &amp;quot;liberation mono&amp;quot; , monospace ; background-color: rgb(255 , 255 , 255)&quot;&gt; &lt;/span&gt;&lt;span class=&quot;pl-s1&quot; style=&quot;box-sizing: border-box ; color: rgb(36 , 41 , 47) ; font-family: , , &amp;quot;sf mono&amp;quot; , &amp;quot;menlo&amp;quot; , &amp;quot;consolas&amp;quot; , &amp;quot;liberation mono&amp;quot; , monospace ; background-color: rgb(255 , 255 , 255)&quot;&gt;passw&lt;/span&gt;&lt;span style=&quot;color: rgb(36 , 41 , 47) ; font-family: , , &amp;quot;sf mono&amp;quot; , &amp;quot;menlo&amp;quot; , &amp;quot;consolas&amp;quot; , &amp;quot;liberation mono&amp;quot; , monospace ; background-color: rgb(255 , 255 , 255)&quot;&gt; &lt;/span&gt;&lt;span class=&quot;pl-c1&quot; style=&quot;box-sizing: border-box ; font-family: , , &amp;quot;sf mono&amp;quot; , &amp;quot;menlo&amp;quot; , &amp;quot;consolas&amp;quot; , &amp;quot;liberation mono&amp;quot; , monospace ; background-color: rgb(255 , 255 , 255)&quot;&gt;in&lt;/span&gt;&lt;span style=&quot;color: rgb(36 , 41 , 47) ; font-family: , , &amp;quot;sf mono&amp;quot; , &amp;quot;menlo&amp;quot; , &amp;quot;consolas&amp;quot; , &amp;quot;liberation mono&amp;quot; , monospace ; background-color: rgb(255 , 255 , 255)&quot;&gt; &lt;/span&gt;&lt;span class=&quot;pl-en&quot; style=&quot;box-sizing: border-box ; font-family: , , &amp;quot;sf mono&amp;quot; , &amp;quot;menlo&amp;quot; , &amp;quot;consolas&amp;quot; , &amp;quot;liberation mono&amp;quot; , monospace ; background-color: rgb(255 , 255 , 255)&quot;&gt;sorted&lt;/span&gt;&lt;span style=&quot;color: rgb(36 , 41 , 47) ; font-family: , , &amp;quot;sf mono&amp;quot; , &amp;quot;menlo&amp;quot; , &amp;quot;consolas&amp;quot; , &amp;quot;liberation mono&amp;quot; , monospace ; background-color: rgb(255 , 255 , 255)&quot;&gt;(&lt;/span&gt;&lt;span class=&quot;pl-s1&quot; style=&quot;box-sizing: border-box ; color: rgb(36 , 41 , 47) ; font-family: , , &amp;quot;sf mono&amp;quot; , &amp;quot;menlo&amp;quot; , &amp;quot;consolas&amp;quot; , &amp;quot;liberation mono&amp;quot; , monospace ; background-color: rgb(255 , 255 , 255)&quot;&gt;self&lt;/span&gt;&lt;span style=&quot;color: rgb(36 , 41 , 47) ; font-family: , , &amp;quot;sf mono&amp;quot; , &amp;quot;menlo&amp;quot; , &amp;quot;consolas&amp;quot; , &amp;quot;liberation mono&amp;quot; , monospace ; background-color: rgb(255 , 255 , 255)&quot;&gt;.&lt;/span&gt;&lt;span class=&quot;pl-s1&quot; style=&quot;box-sizing: border-box ; color: rgb(36 , 41 , 47) ; font-family: , , &amp;quot;sf mono&amp;quot; , &amp;quot;menlo&amp;quot; , &amp;quot;consolas&amp;quot; , &amp;quot;liberation mono&amp;quot; , monospace ; background-color: rgb(255 , 255 , 255)&quot;&gt;pass_cnt&lt;/span&gt;&lt;span style=&quot;color: rgb(36 , 41 , 47) ; font-family: , , &amp;quot;sf mono&amp;quot; , &amp;quot;menlo&amp;quot; , &amp;quot;consolas&amp;quot; , &amp;quot;liberation mono&amp;quot; , monospace ; background-color: rgb(255 , 255 , 255)&quot;&gt;.&lt;/span&gt;&lt;span class=&quot;pl-en&quot; style=&quot;box-sizing: border-box ; font-family: , , &amp;quot;sf mono&amp;quot; , &amp;quot;menlo&amp;quot; , &amp;quot;consolas&amp;quot; , &amp;quot;liberation mono&amp;quot; , monospace ; background-color: rgb(255 , 255 , 255)&quot;&gt;items&lt;/span&gt;&lt;span style=&quot;color: rgb(36 , 41 , 47) ; font-family: , , &amp;quot;sf mono&amp;quot; , &amp;quot;menlo&amp;quot; , &amp;quot;consolas&amp;quot; , &amp;quot;liberation mono&amp;quot; , monospace ; background-color: rgb(255 , 255 , 255)&quot;&gt;(), &lt;/span&gt;&lt;span class=&quot;pl-s1&quot; style=&quot;box-sizing: border-box ; color: rgb(36 , 41 , 47) ; font-family: , , &amp;quot;sf mono&amp;quot; , &amp;quot;menlo&amp;quot; , &amp;quot;consolas&amp;quot; , &amp;quot;liberation mono&amp;quot; , monospace ; background-color: rgb(255 , 255 , 255)&quot;&gt;key&lt;/span&gt;&lt;span class=&quot;pl-c1&quot; style=&quot;box-sizing: border-box ; font-family: , , &amp;quot;sf mono&amp;quot; , &amp;quot;menlo&amp;quot; , &amp;quot;consolas&amp;quot; , &amp;quot;liberation mono&amp;quot; , monospace ; background-color: rgb(255 , 255 , 255)&quot;&gt;=&lt;/span&gt;&lt;span class=&quot;pl-s1&quot; style=&quot;box-sizing: border-box ; color: rgb(36 , 41 , 47) ; font-family: , , &amp;quot;sf mono&amp;quot; , &amp;quot;menlo&amp;quot; , &amp;quot;consolas&amp;quot; , &amp;quot;liberation mono&amp;quot; , monospace ; background-color: rgb(255 , 255 , 255)&quot;&gt;operator&lt;/span&gt;&lt;span style=&quot;color: rgb(36 , 41 , 47) ; font-family: , , &amp;quot;sf mono&amp;quot; , &amp;quot;menlo&amp;quot; , &amp;quot;consolas&amp;quot; , &amp;quot;liberation mono&amp;quot; , monospace ; background-color: rgb(255 , 255 , 255)&quot;&gt;.&lt;/span&gt;&lt;span class=&quot;pl-en&quot; style=&quot;box-sizing: border-box ; font-family: , , &amp;quot;sf mono&amp;quot; , &amp;quot;menlo&amp;quot; , &amp;quot;consolas&amp;quot; , &amp;quot;liberation mono&amp;quot; , monospace ; background-color: rgb(255 , 255 , 255)&quot;&gt;itemgetter&lt;/span&gt;&lt;span style=&quot;color: rgb(36 , 41 , 47) ; font-family: , , &amp;quot;sf mono&amp;quot; , &amp;quot;menlo&amp;quot; , &amp;quot;consolas&amp;quot; , &amp;quot;liberation mono&amp;quot; , monospace ; background-color: rgb(255 , 255 , 255)&quot;&gt;(&lt;/span&gt;&lt;span class=&quot;pl-c1&quot; style=&quot;box-sizing: border-box ; font-family: , , &amp;quot;sf mono&amp;quot; , &amp;quot;menlo&amp;quot; , &amp;quot;consolas&amp;quot; , &amp;quot;liberation mono&amp;quot; , monospace ; background-color: rgb(255 , 255 , 255)&quot;&gt;1&lt;/span&gt;&lt;span style=&quot;color: rgb(36 , 41 , 47) ; font-family: , , &amp;quot;sf mono&amp;quot; , &amp;quot;menlo&amp;quot; , &amp;quot;consolas&amp;quot; , &amp;quot;liberation mono&amp;quot; , monospace ; background-color: rgb(255 , 255 , 255)&quot;&gt;), &lt;/span&gt;&lt;span class=&quot;pl-s1&quot; style=&quot;box-sizing: border-box ; color: rgb(36 , 41 , 47) ; font-family: , , &amp;quot;sf mono&amp;quot; , &amp;quot;menlo&amp;quot; , &amp;quot;consolas&amp;quot; , &amp;quot;liberation mono&amp;quot; , monospace ; background-color: rgb(255 , 255 , 255)&quot;&gt;reverse&lt;/span&gt;&lt;span class=&quot;pl-c1&quot; style=&quot;box-sizing: border-box ; font-family: , , &amp;quot;sf mono&amp;quot; , &amp;quot;menlo&amp;quot; , &amp;quot;consolas&amp;quot; , &amp;quot;liberation mono&amp;quot; , monospace ; background-color: rgb(255 , 255 , 255)&quot;&gt;=&lt;/span&gt;&lt;span class=&quot;pl-c1&quot; style=&quot;box-sizing: border-box ; font-family: , , &amp;quot;sf mono&amp;quot; , &amp;quot;menlo&amp;quot; , &amp;quot;consolas&amp;quot; , &amp;quot;liberation mono&amp;quot; , monospace ; background-color: rgb(255 , 255 , 255)&quot;&gt;True&lt;/span&gt;&lt;span style=&quot;color: rgb(36 , 41 , 47) ; font-family: , , &amp;quot;sf mono&amp;quot; , &amp;quot;menlo&amp;quot; , &amp;quot;consolas&amp;quot; , &amp;quot;liberation mono&amp;quot; , monospace ; background-color: rgb(255 , 255 , 255)&quot;&gt;)[:&lt;/span&gt;&lt;span class=&quot;pl-c1&quot; style=&quot;box-sizing: border-box ; font-family: , , &amp;quot;sf mono&amp;quot; , &amp;quot;menlo&amp;quot; , &amp;quot;consolas&amp;quot; , &amp;quot;liberation mono&amp;quot; , monospace ; background-color: rgb(255 , 255 , 255)&quot;&gt;30&lt;/span&gt;&lt;span style=&quot;color: rgb(36 , 41 , 47) ; font-family: , , &amp;quot;sf mono&amp;quot; , &amp;quot;menlo&amp;quot; , &amp;quot;consolas&amp;quot; , &amp;quot;liberation mono&amp;quot; , monospace ; background-color: rgb(255 , 255 , 255)&quot;&gt;]:&lt;/span&gt;&lt;/font&gt;" style="shape=hexagon;perimeter=hexagonPerimeter2;whiteSpace=wrap;html=1;fixedSize=1;fontSize=10;fontStyle=0" vertex="1" parent="1">
          <mxGeometry x="306" y="3540" width="186" height="87" as="geometry" />
        </mxCell>
        <mxCell id="qg9Bv7iyJqf_FRKgCrLy-66" style="edgeStyle=orthogonalEdgeStyle;rounded=0;orthogonalLoop=1;jettySize=auto;html=1;exitX=0.5;exitY=1;exitDx=0;exitDy=0;entryX=0;entryY=0.5;entryDx=0;entryDy=0;fontSize=10;fontStyle=0" edge="1" parent="1" source="qg9Bv7iyJqf_FRKgCrLy-67" target="qg9Bv7iyJqf_FRKgCrLy-65">
          <mxGeometry relative="1" as="geometry">
            <Array as="points">
              <mxPoint x="399" y="3740" />
              <mxPoint x="286" y="3740" />
              <mxPoint x="286" y="3584" />
            </Array>
          </mxGeometry>
        </mxCell>
        <mxCell id="qg9Bv7iyJqf_FRKgCrLy-67" value="&lt;span style=&quot;color: rgb(36 , 41 , 47) ; font-family: , , &amp;quot;sf mono&amp;quot; , &amp;quot;menlo&amp;quot; , &amp;quot;consolas&amp;quot; , &amp;quot;liberation mono&amp;quot; , monospace ; font-size: 12px ; background-color: rgb(255 , 255 , 255)&quot;&gt; &lt;/span&gt;&lt;span class=&quot;pl-en&quot; style=&quot;box-sizing: border-box ; font-family: , , &amp;quot;sf mono&amp;quot; , &amp;quot;menlo&amp;quot; , &amp;quot;consolas&amp;quot; , &amp;quot;liberation mono&amp;quot; , monospace ; font-size: 12px ; background-color: rgb(255 , 255 , 255)&quot;&gt;print&lt;/span&gt;&lt;span style=&quot;color: rgb(36 , 41 , 47) ; font-family: , , &amp;quot;sf mono&amp;quot; , &amp;quot;menlo&amp;quot; , &amp;quot;consolas&amp;quot; , &amp;quot;liberation mono&amp;quot; , monospace ; font-size: 12px ; background-color: rgb(255 , 255 , 255)&quot;&gt;(&lt;/span&gt;&lt;span class=&quot;pl-s1&quot; style=&quot;box-sizing: border-box ; color: rgb(36 , 41 , 47) ; font-family: , , &amp;quot;sf mono&amp;quot; , &amp;quot;menlo&amp;quot; , &amp;quot;consolas&amp;quot; , &amp;quot;liberation mono&amp;quot; , monospace ; font-size: 12px ; background-color: rgb(255 , 255 , 255)&quot;&gt;passw&lt;/span&gt;&lt;span style=&quot;color: rgb(36 , 41 , 47) ; font-family: , , &amp;quot;sf mono&amp;quot; , &amp;quot;menlo&amp;quot; , &amp;quot;consolas&amp;quot; , &amp;quot;liberation mono&amp;quot; , monospace ; font-size: 12px ; background-color: rgb(255 , 255 , 255)&quot;&gt;)&lt;/span&gt;" style="shape=parallelogram;perimeter=parallelogramPerimeter;whiteSpace=wrap;html=1;fixedSize=1;fontSize=10;fontStyle=0" vertex="1" parent="1">
          <mxGeometry x="339" y="3660" width="120" height="60" as="geometry" />
        </mxCell>
        <mxCell id="qg9Bv7iyJqf_FRKgCrLy-68" value="" style="endArrow=none;html=1;rounded=0;fontSize=10;exitX=0.5;exitY=0;exitDx=0;exitDy=0;entryX=0.5;entryY=1;entryDx=0;entryDy=0;fontStyle=0" edge="1" parent="1" source="qg9Bv7iyJqf_FRKgCrLy-65" target="qg9Bv7iyJqf_FRKgCrLy-63">
          <mxGeometry width="50" height="50" relative="1" as="geometry">
            <mxPoint x="200" y="3430" as="sourcePoint" />
            <mxPoint x="250" y="3380" as="targetPoint" />
          </mxGeometry>
        </mxCell>
        <mxCell id="qg9Bv7iyJqf_FRKgCrLy-69" value="&lt;span&gt;&amp;nbsp;print(&#39;most common username attempts:&#39;)&lt;/span&gt;" style="shape=parallelogram;perimeter=parallelogramPerimeter;whiteSpace=wrap;html=1;fixedSize=1;fontSize=9;fontStyle=0" vertex="1" parent="1">
          <mxGeometry x="350" y="3140" width="120" height="60" as="geometry" />
        </mxCell>
        <mxCell id="qg9Bv7iyJqf_FRKgCrLy-70" value="" style="endArrow=none;html=1;rounded=0;fontSize=9;exitX=0.5;exitY=0;exitDx=0;exitDy=0;entryX=0.5;entryY=1;entryDx=0;entryDy=0;fontStyle=0" edge="1" parent="1" source="qg9Bv7iyJqf_FRKgCrLy-55" target="qg9Bv7iyJqf_FRKgCrLy-69">
          <mxGeometry width="50" height="50" relative="1" as="geometry">
            <mxPoint x="240" y="3260" as="sourcePoint" />
            <mxPoint x="290" y="3210" as="targetPoint" />
          </mxGeometry>
        </mxCell>
        <mxCell id="qg9Bv7iyJqf_FRKgCrLy-71" value="&lt;font style=&quot;font-size: 10px&quot;&gt;&lt;span class=&quot;pl-en&quot; style=&quot;box-sizing: border-box ; font-family: , , &amp;quot;sf mono&amp;quot; , &amp;quot;menlo&amp;quot; , &amp;quot;consolas&amp;quot; , &amp;quot;liberation mono&amp;quot; , monospace ; background-color: rgb(255 , 255 , 255)&quot;&gt;print&lt;/span&gt;&lt;span style=&quot;color: rgb(36 , 41 , 47) ; font-family: , , &amp;quot;sf mono&amp;quot; , &amp;quot;menlo&amp;quot; , &amp;quot;consolas&amp;quot; , &amp;quot;liberation mono&amp;quot; , monospace ; background-color: rgb(255 , 255 , 255)&quot;&gt;(&lt;/span&gt;&lt;span class=&quot;pl-s&quot; style=&quot;box-sizing: border-box ; font-family: , , &amp;quot;sf mono&amp;quot; , &amp;quot;menlo&amp;quot; , &amp;quot;consolas&amp;quot; , &amp;quot;liberation mono&amp;quot; , monospace ; background-color: rgb(255 , 255 , 255)&quot;&gt;&#39;most common username/password combos:&#39;&lt;/span&gt;&lt;span style=&quot;color: rgb(36 , 41 , 47) ; font-family: , , &amp;quot;sf mono&amp;quot; , &amp;quot;menlo&amp;quot; , &amp;quot;consolas&amp;quot; , &amp;quot;liberation mono&amp;quot; , monospace ; background-color: rgb(255 , 255 , 255)&quot;&gt;)&lt;/span&gt;&lt;/font&gt;" style="shape=parallelogram;perimeter=parallelogramPerimeter;whiteSpace=wrap;html=1;fixedSize=1;fontSize=10;fontStyle=0" vertex="1" parent="1">
          <mxGeometry x="339" y="3780" width="120" height="60" as="geometry" />
        </mxCell>
        <mxCell id="qg9Bv7iyJqf_FRKgCrLy-73" style="edgeStyle=orthogonalEdgeStyle;rounded=0;orthogonalLoop=1;jettySize=auto;html=1;entryX=0.5;entryY=0;entryDx=0;entryDy=0;fontSize=10;fontStyle=0" edge="1" parent="1" source="qg9Bv7iyJqf_FRKgCrLy-75" target="qg9Bv7iyJqf_FRKgCrLy-77">
          <mxGeometry relative="1" as="geometry" />
        </mxCell>
        <mxCell id="qg9Bv7iyJqf_FRKgCrLy-74" style="edgeStyle=orthogonalEdgeStyle;rounded=0;orthogonalLoop=1;jettySize=auto;html=1;exitX=1;exitY=0.5;exitDx=0;exitDy=0;entryX=0.5;entryY=0;entryDx=0;entryDy=0;fontSize=10;fontStyle=0" edge="1" parent="1" source="qg9Bv7iyJqf_FRKgCrLy-75" target="qg9Bv7iyJqf_FRKgCrLy-78">
          <mxGeometry relative="1" as="geometry">
            <Array as="points">
              <mxPoint x="513" y="3914" />
              <mxPoint x="513" y="4090" />
              <mxPoint x="400" y="4090" />
            </Array>
          </mxGeometry>
        </mxCell>
        <mxCell id="qg9Bv7iyJqf_FRKgCrLy-75" value="&lt;font size=&quot;1&quot;&gt;for creds in sorted(self.userpass_cnt.items(), key=operator.itemgetter(1), reverse=True)[:10]:&lt;/font&gt;" style="shape=hexagon;perimeter=hexagonPerimeter2;whiteSpace=wrap;html=1;fixedSize=1;fontSize=10;fontStyle=0" vertex="1" parent="1">
          <mxGeometry x="307" y="3870" width="186" height="87" as="geometry" />
        </mxCell>
        <mxCell id="qg9Bv7iyJqf_FRKgCrLy-76" style="edgeStyle=orthogonalEdgeStyle;rounded=0;orthogonalLoop=1;jettySize=auto;html=1;exitX=0.5;exitY=1;exitDx=0;exitDy=0;entryX=0;entryY=0.5;entryDx=0;entryDy=0;fontSize=10;fontStyle=0" edge="1" parent="1" source="qg9Bv7iyJqf_FRKgCrLy-77" target="qg9Bv7iyJqf_FRKgCrLy-75">
          <mxGeometry relative="1" as="geometry">
            <Array as="points">
              <mxPoint x="400" y="4070" />
              <mxPoint x="287" y="4070" />
              <mxPoint x="287" y="3914" />
            </Array>
          </mxGeometry>
        </mxCell>
        <mxCell id="qg9Bv7iyJqf_FRKgCrLy-77" value="&lt;span class=&quot;pl-en&quot; style=&quot;box-sizing: border-box ; font-family: , , &amp;quot;sf mono&amp;quot; , &amp;quot;menlo&amp;quot; , &amp;quot;consolas&amp;quot; , &amp;quot;liberation mono&amp;quot; , monospace ; font-size: 12px ; background-color: rgb(255 , 255 , 255)&quot;&gt;print&lt;/span&gt;&lt;span style=&quot;color: rgb(36 , 41 , 47) ; font-family: , , &amp;quot;sf mono&amp;quot; , &amp;quot;menlo&amp;quot; , &amp;quot;consolas&amp;quot; , &amp;quot;liberation mono&amp;quot; , monospace ; font-size: 12px ; background-color: rgb(255 , 255 , 255)&quot;&gt;(&lt;/span&gt;&lt;span class=&quot;pl-s1&quot; style=&quot;box-sizing: border-box ; color: rgb(36 , 41 , 47) ; font-family: , , &amp;quot;sf mono&amp;quot; , &amp;quot;menlo&amp;quot; , &amp;quot;consolas&amp;quot; , &amp;quot;liberation mono&amp;quot; , monospace ; font-size: 12px ; background-color: rgb(255 , 255 , 255)&quot;&gt;creds&lt;/span&gt;&lt;span style=&quot;color: rgb(36 , 41 , 47) ; font-family: , , &amp;quot;sf mono&amp;quot; , &amp;quot;menlo&amp;quot; , &amp;quot;consolas&amp;quot; , &amp;quot;liberation mono&amp;quot; , monospace ; font-size: 12px ; background-color: rgb(255 , 255 , 255)&quot;&gt;)&lt;/span&gt;" style="shape=parallelogram;perimeter=parallelogramPerimeter;whiteSpace=wrap;html=1;fixedSize=1;fontSize=10;fontStyle=0" vertex="1" parent="1">
          <mxGeometry x="340" y="3990" width="120" height="60" as="geometry" />
        </mxCell>
        <mxCell id="qg9Bv7iyJqf_FRKgCrLy-78" value="&lt;font style=&quot;font-size: 10px&quot;&gt;&lt;span class=&quot;pl-en&quot; style=&quot;box-sizing: border-box ; font-family: , , &amp;quot;sf mono&amp;quot; , &amp;quot;menlo&amp;quot; , &amp;quot;consolas&amp;quot; , &amp;quot;liberation mono&amp;quot; , monospace ; background-color: rgb(255 , 255 , 255)&quot;&gt;print&lt;/span&gt;&lt;span style=&quot;color: rgb(36 , 41 , 47) ; font-family: , , &amp;quot;sf mono&amp;quot; , &amp;quot;menlo&amp;quot; , &amp;quot;consolas&amp;quot; , &amp;quot;liberation mono&amp;quot; , monospace ; background-color: rgb(255 , 255 , 255)&quot;&gt;(&lt;/span&gt;&lt;span class=&quot;pl-s&quot; style=&quot;box-sizing: border-box ; font-family: , , &amp;quot;sf mono&amp;quot; , &amp;quot;menlo&amp;quot; , &amp;quot;consolas&amp;quot; , &amp;quot;liberation mono&amp;quot; , monospace ; background-color: rgb(255 , 255 , 255)&quot;&gt;&#39;most common username/password combos:&#39;&lt;/span&gt;&lt;span style=&quot;color: rgb(36 , 41 , 47) ; font-family: , , &amp;quot;sf mono&amp;quot; , &amp;quot;menlo&amp;quot; , &amp;quot;consolas&amp;quot; , &amp;quot;liberation mono&amp;quot; , monospace ; background-color: rgb(255 , 255 , 255)&quot;&gt;)&lt;/span&gt;&lt;/font&gt;" style="shape=parallelogram;perimeter=parallelogramPerimeter;whiteSpace=wrap;html=1;fixedSize=1;fontSize=10;fontStyle=0" vertex="1" parent="1">
          <mxGeometry x="340" y="4110" width="120" height="60" as="geometry" />
        </mxCell>
        <mxCell id="qg9Bv7iyJqf_FRKgCrLy-79" value="&lt;span class=&quot;pl-s1&quot; style=&quot;box-sizing: border-box ; color: rgb(36 , 41 , 47) ; font-family: , , &amp;quot;sf mono&amp;quot; , &amp;quot;menlo&amp;quot; , &amp;quot;consolas&amp;quot; , &amp;quot;liberation mono&amp;quot; , monospace ; font-size: 12px ; background-color: rgb(255 , 255 , 255)&quot;&gt;self&lt;/span&gt;&lt;span style=&quot;color: rgb(36 , 41 , 47) ; font-family: , , &amp;quot;sf mono&amp;quot; , &amp;quot;menlo&amp;quot; , &amp;quot;consolas&amp;quot; , &amp;quot;liberation mono&amp;quot; , monospace ; font-size: 12px ; background-color: rgb(255 , 255 , 255)&quot;&gt;.&lt;/span&gt;&lt;span class=&quot;pl-en&quot; style=&quot;box-sizing: border-box ; font-family: , , &amp;quot;sf mono&amp;quot; , &amp;quot;menlo&amp;quot; , &amp;quot;consolas&amp;quot; , &amp;quot;liberation mono&amp;quot; , monospace ; font-size: 12px ; background-color: rgb(255 , 255 , 255)&quot;&gt;&lt;span class=&quot;pl-token&quot; style=&quot;box-sizing: border-box&quot;&gt;plot&lt;/span&gt;&lt;/span&gt;&lt;span style=&quot;color: rgb(36 , 41 , 47) ; font-family: , , &amp;quot;sf mono&amp;quot; , &amp;quot;menlo&amp;quot; , &amp;quot;consolas&amp;quot; , &amp;quot;liberation mono&amp;quot; , monospace ; font-size: 12px ; background-color: rgb(255 , 255 , 255)&quot;&gt;()&lt;/span&gt;" style="shape=parallelogram;perimeter=parallelogramPerimeter;whiteSpace=wrap;html=1;fixedSize=1;fontSize=10;fontStyle=0" vertex="1" parent="1">
          <mxGeometry x="339" y="4190" width="120" height="60" as="geometry" />
        </mxCell>
        <mxCell id="qg9Bv7iyJqf_FRKgCrLy-80" value="&lt;font style=&quot;font-size: 9px&quot;&gt;if os.path.isfile(&#39;GeoLite2-Country.mmdb&#39;):&lt;/font&gt;" style="rhombus;whiteSpace=wrap;html=1;fontSize=10;fontStyle=0" vertex="1" parent="1">
          <mxGeometry x="335" y="4270" width="130" height="90" as="geometry" />
        </mxCell>
        <mxCell id="qg9Bv7iyJqf_FRKgCrLy-81" value="&lt;span class=&quot;pl-s1&quot; style=&quot;box-sizing: border-box ; color: rgb(36 , 41 , 47) ; font-family: , , &amp;quot;sf mono&amp;quot; , &amp;quot;menlo&amp;quot; , &amp;quot;consolas&amp;quot; , &amp;quot;liberation mono&amp;quot; , monospace ; font-size: 12px ; background-color: rgb(255 , 255 , 255)&quot;&gt;self&lt;/span&gt;&lt;span style=&quot;color: rgb(36 , 41 , 47) ; font-family: , , &amp;quot;sf mono&amp;quot; , &amp;quot;menlo&amp;quot; , &amp;quot;consolas&amp;quot; , &amp;quot;liberation mono&amp;quot; , monospace ; font-size: 12px ; background-color: rgb(255 , 255 , 255)&quot;&gt;.&lt;/span&gt;&lt;span class=&quot;pl-en&quot; style=&quot;box-sizing: border-box ; font-family: , , &amp;quot;sf mono&amp;quot; , &amp;quot;menlo&amp;quot; , &amp;quot;consolas&amp;quot; , &amp;quot;liberation mono&amp;quot; , monospace ; font-size: 12px ; background-color: rgb(255 , 255 , 255)&quot;&gt;&lt;span class=&quot;pl-token&quot; style=&quot;box-sizing: border-box&quot;&gt;map_ips&lt;/span&gt;&lt;/span&gt;&lt;span style=&quot;color: rgb(36 , 41 , 47) ; font-family: , , &amp;quot;sf mono&amp;quot; , &amp;quot;menlo&amp;quot; , &amp;quot;consolas&amp;quot; , &amp;quot;liberation mono&amp;quot; , monospace ; font-size: 12px ; background-color: rgb(255 , 255 , 255)&quot;&gt;()&lt;/span&gt;" style="shape=parallelogram;perimeter=parallelogramPerimeter;whiteSpace=wrap;html=1;fixedSize=1;fontSize=9;fontStyle=0" vertex="1" parent="1">
          <mxGeometry x="340" y="4390" width="120" height="60" as="geometry" />
        </mxCell>
        <mxCell id="qg9Bv7iyJqf_FRKgCrLy-82" value="" style="endArrow=none;html=1;rounded=0;fontSize=9;exitX=0.5;exitY=0;exitDx=0;exitDy=0;fontStyle=0" edge="1" parent="1" source="qg9Bv7iyJqf_FRKgCrLy-81" target="qg9Bv7iyJqf_FRKgCrLy-80">
          <mxGeometry width="50" height="50" relative="1" as="geometry">
            <mxPoint x="110" y="4390" as="sourcePoint" />
            <mxPoint x="160" y="4340" as="targetPoint" />
          </mxGeometry>
        </mxCell>
        <mxCell id="qg9Bv7iyJqf_FRKgCrLy-83" value="Да" style="text;html=1;align=center;verticalAlign=middle;resizable=0;points=[];autosize=1;strokeColor=none;fillColor=none;fontSize=9;fontStyle=0" vertex="1" parent="1">
          <mxGeometry x="405" y="4360" width="30" height="20" as="geometry" />
        </mxCell>
        <mxCell id="qg9Bv7iyJqf_FRKgCrLy-86" value="Нет" style="text;html=1;align=center;verticalAlign=middle;resizable=0;points=[];autosize=1;strokeColor=none;fillColor=none;fontSize=9;fontStyle=0" vertex="1" parent="1">
          <mxGeometry x="475" y="4290" width="30" height="20" as="geometry" />
        </mxCell>
        <mxCell id="qg9Bv7iyJqf_FRKgCrLy-87" value="&lt;span style=&quot;color: rgb(36 , 41 , 47) ; font-family: , , &amp;quot;sf mono&amp;quot; , &amp;quot;menlo&amp;quot; , &amp;quot;consolas&amp;quot; , &amp;quot;liberation mono&amp;quot; , monospace ; font-size: 12px ; background-color: rgb(255 , 255 , 255)&quot;&gt; &lt;/span&gt;&lt;span class=&quot;pl-k&quot; style=&quot;box-sizing: border-box ; font-family: , , &amp;quot;sf mono&amp;quot; , &amp;quot;menlo&amp;quot; , &amp;quot;consolas&amp;quot; , &amp;quot;liberation mono&amp;quot; , monospace ; font-size: 12px ; background-color: rgb(255 , 255 , 255)&quot;&gt;def&lt;/span&gt;&lt;span style=&quot;color: rgb(36 , 41 , 47) ; font-family: , , &amp;quot;sf mono&amp;quot; , &amp;quot;menlo&amp;quot; , &amp;quot;consolas&amp;quot; , &amp;quot;liberation mono&amp;quot; , monospace ; font-size: 12px ; background-color: rgb(255 , 255 , 255)&quot;&gt; &lt;/span&gt;&lt;span class=&quot;pl-en&quot; style=&quot;box-sizing: border-box ; font-family: , , &amp;quot;sf mono&amp;quot; , &amp;quot;menlo&amp;quot; , &amp;quot;consolas&amp;quot; , &amp;quot;liberation mono&amp;quot; , monospace ; font-size: 12px ; background-color: rgb(255 , 255 , 255)&quot;&gt;&lt;span class=&quot;pl-token&quot; style=&quot;box-sizing: border-box&quot;&gt;map_ips&lt;/span&gt;&lt;/span&gt;&lt;span style=&quot;color: rgb(36 , 41 , 47) ; font-family: , , &amp;quot;sf mono&amp;quot; , &amp;quot;menlo&amp;quot; , &amp;quot;consolas&amp;quot; , &amp;quot;liberation mono&amp;quot; , monospace ; font-size: 12px ; background-color: rgb(255 , 255 , 255)&quot;&gt;(&lt;/span&gt;&lt;span class=&quot;pl-s1&quot; style=&quot;box-sizing: border-box ; color: rgb(36 , 41 , 47) ; font-family: , , &amp;quot;sf mono&amp;quot; , &amp;quot;menlo&amp;quot; , &amp;quot;consolas&amp;quot; , &amp;quot;liberation mono&amp;quot; , monospace ; font-size: 12px ; background-color: rgb(255 , 255 , 255)&quot;&gt;self&lt;/span&gt;&lt;span style=&quot;color: rgb(36 , 41 , 47) ; font-family: , , &amp;quot;sf mono&amp;quot; , &amp;quot;menlo&amp;quot; , &amp;quot;consolas&amp;quot; , &amp;quot;liberation mono&amp;quot; , monospace ; font-size: 12px ; background-color: rgb(255 , 255 , 255)&quot;&gt;):&lt;/span&gt;" style="shape=process;whiteSpace=wrap;html=1;backgroundOutline=1;fontSize=9;fontStyle=0" vertex="1" parent="1">
          <mxGeometry x="339" y="4490" width="120" height="60" as="geometry" />
        </mxCell>
        <mxCell id="qg9Bv7iyJqf_FRKgCrLy-88" value="&lt;div&gt;geoip_overall = defaultdict(int)&lt;/div&gt;&lt;div&gt;import geoip2.database&lt;/div&gt;&lt;div&gt;reader = geoip2.database.Reader(&#39;GeoLite2-Country.mmdb&#39;)&lt;/div&gt;" style="rounded=0;whiteSpace=wrap;html=1;fontSize=9;align=left;fontStyle=0" vertex="1" parent="1">
          <mxGeometry x="325" y="4570" width="150" height="60" as="geometry" />
        </mxCell>
        <mxCell id="qg9Bv7iyJqf_FRKgCrLy-100" style="edgeStyle=orthogonalEdgeStyle;rounded=0;orthogonalLoop=1;jettySize=auto;html=1;exitX=1;exitY=0.5;exitDx=0;exitDy=0;entryX=0.5;entryY=0;entryDx=0;entryDy=0;fontSize=8;fontStyle=0" edge="1" parent="1" source="qg9Bv7iyJqf_FRKgCrLy-89" target="qg9Bv7iyJqf_FRKgCrLy-91">
          <mxGeometry relative="1" as="geometry">
            <Array as="points">
              <mxPoint x="580" y="4710" />
              <mxPoint x="580" y="4880" />
              <mxPoint x="400" y="4880" />
            </Array>
          </mxGeometry>
        </mxCell>
        <mxCell id="qg9Bv7iyJqf_FRKgCrLy-89" value="&lt;font style=&quot;font-size: 10px&quot;&gt;&lt;span class=&quot;pl-k&quot; style=&quot;box-sizing: border-box ; font-family: , , &amp;quot;sf mono&amp;quot; , &amp;quot;menlo&amp;quot; , &amp;quot;consolas&amp;quot; , &amp;quot;liberation mono&amp;quot; , monospace ; background-color: rgb(255 , 255 , 255)&quot;&gt;for&lt;/span&gt;&lt;span style=&quot;color: rgb(36 , 41 , 47) ; font-family: , , &amp;quot;sf mono&amp;quot; , &amp;quot;menlo&amp;quot; , &amp;quot;consolas&amp;quot; , &amp;quot;liberation mono&amp;quot; , monospace ; background-color: rgb(255 , 255 , 255)&quot;&gt; &lt;/span&gt;&lt;span class=&quot;pl-s1&quot; style=&quot;box-sizing: border-box ; color: rgb(36 , 41 , 47) ; font-family: , , &amp;quot;sf mono&amp;quot; , &amp;quot;menlo&amp;quot; , &amp;quot;consolas&amp;quot; , &amp;quot;liberation mono&amp;quot; , monospace ; background-color: rgb(255 , 255 , 255)&quot;&gt;addr&lt;/span&gt;&lt;span style=&quot;color: rgb(36 , 41 , 47) ; font-family: , , &amp;quot;sf mono&amp;quot; , &amp;quot;menlo&amp;quot; , &amp;quot;consolas&amp;quot; , &amp;quot;liberation mono&amp;quot; , monospace ; background-color: rgb(255 , 255 , 255)&quot;&gt; &lt;/span&gt;&lt;span class=&quot;pl-c1&quot; style=&quot;box-sizing: border-box ; font-family: , , &amp;quot;sf mono&amp;quot; , &amp;quot;menlo&amp;quot; , &amp;quot;consolas&amp;quot; , &amp;quot;liberation mono&amp;quot; , monospace ; background-color: rgb(255 , 255 , 255)&quot;&gt;in&lt;/span&gt;&lt;span style=&quot;color: rgb(36 , 41 , 47) ; font-family: , , &amp;quot;sf mono&amp;quot; , &amp;quot;menlo&amp;quot; , &amp;quot;consolas&amp;quot; , &amp;quot;liberation mono&amp;quot; , monospace ; background-color: rgb(255 , 255 , 255)&quot;&gt; &lt;/span&gt;&lt;span class=&quot;pl-en&quot; style=&quot;box-sizing: border-box ; font-family: , , &amp;quot;sf mono&amp;quot; , &amp;quot;menlo&amp;quot; , &amp;quot;consolas&amp;quot; , &amp;quot;liberation mono&amp;quot; , monospace ; background-color: rgb(255 , 255 , 255)&quot;&gt;sorted&lt;br&gt;&lt;/span&gt;&lt;span style=&quot;color: rgb(36 , 41 , 47) ; font-family: , , &amp;quot;sf mono&amp;quot; , &amp;quot;menlo&amp;quot; , &amp;quot;consolas&amp;quot; , &amp;quot;liberation mono&amp;quot; , monospace ; background-color: rgb(255 , 255 , 255)&quot;&gt;(&lt;/span&gt;&lt;span class=&quot;pl-s1&quot; style=&quot;box-sizing: border-box ; color: rgb(36 , 41 , 47) ; font-family: , , &amp;quot;sf mono&amp;quot; , &amp;quot;menlo&amp;quot; , &amp;quot;consolas&amp;quot; , &amp;quot;liberation mono&amp;quot; , monospace ; background-color: rgb(255 , 255 , 255)&quot;&gt;self&lt;/span&gt;&lt;span style=&quot;color: rgb(36 , 41 , 47) ; font-family: , , &amp;quot;sf mono&amp;quot; , &amp;quot;menlo&amp;quot; , &amp;quot;consolas&amp;quot; , &amp;quot;liberation mono&amp;quot; , monospace ; background-color: rgb(255 , 255 , 255)&quot;&gt;.&lt;/span&gt;&lt;span class=&quot;pl-s1&quot; style=&quot;box-sizing: border-box ; color: rgb(36 , 41 , 47) ; font-family: , , &amp;quot;sf mono&amp;quot; , &amp;quot;menlo&amp;quot; , &amp;quot;consolas&amp;quot; , &amp;quot;liberation mono&amp;quot; , monospace ; background-color: rgb(255 , 255 , 255)&quot;&gt;src_ip_cnt&lt;/span&gt;&lt;span style=&quot;color: rgb(36 , 41 , 47) ; font-family: , , &amp;quot;sf mono&amp;quot; , &amp;quot;menlo&amp;quot; , &amp;quot;consolas&amp;quot; , &amp;quot;liberation mono&amp;quot; , monospace ; background-color: rgb(255 , 255 , 255)&quot;&gt;.&lt;/span&gt;&lt;span class=&quot;pl-en&quot; style=&quot;box-sizing: border-box ; font-family: , , &amp;quot;sf mono&amp;quot; , &amp;quot;menlo&amp;quot; , &amp;quot;consolas&amp;quot; , &amp;quot;liberation mono&amp;quot; , monospace ; background-color: rgb(255 , 255 , 255)&quot;&gt;items&lt;/span&gt;&lt;span style=&quot;color: rgb(36 , 41 , 47) ; font-family: , , &amp;quot;sf mono&amp;quot; , &amp;quot;menlo&amp;quot; , &amp;quot;consolas&amp;quot; , &amp;quot;liberation mono&amp;quot; , monospace ; background-color: rgb(255 , 255 , 255)&quot;&gt;(), &lt;/span&gt;&lt;span class=&quot;pl-s1&quot; style=&quot;box-sizing: border-box ; color: rgb(36 , 41 , 47) ; font-family: , , &amp;quot;sf mono&amp;quot; , &amp;quot;menlo&amp;quot; , &amp;quot;consolas&amp;quot; , &amp;quot;liberation mono&amp;quot; , monospace ; background-color: rgb(255 , 255 , 255)&quot;&gt;key&lt;/span&gt;&lt;span class=&quot;pl-c1&quot; style=&quot;box-sizing: border-box ; font-family: , , &amp;quot;sf mono&amp;quot; , &amp;quot;menlo&amp;quot; , &amp;quot;consolas&amp;quot; , &amp;quot;liberation mono&amp;quot; , monospace ; background-color: rgb(255 , 255 , 255)&quot;&gt;=&lt;/span&gt;&lt;span class=&quot;pl-s1&quot; style=&quot;box-sizing: border-box ; color: rgb(36 , 41 , 47) ; font-family: , , &amp;quot;sf mono&amp;quot; , &amp;quot;menlo&amp;quot; , &amp;quot;consolas&amp;quot; , &amp;quot;liberation mono&amp;quot; , monospace ; background-color: rgb(255 , 255 , 255)&quot;&gt;operator&lt;/span&gt;&lt;span style=&quot;color: rgb(36 , 41 , 47) ; font-family: , , &amp;quot;sf mono&amp;quot; , &amp;quot;menlo&amp;quot; , &amp;quot;consolas&amp;quot; , &amp;quot;liberation mono&amp;quot; , monospace ; background-color: rgb(255 , 255 , 255)&quot;&gt;.&lt;/span&gt;&lt;span class=&quot;pl-en&quot; style=&quot;box-sizing: border-box ; font-family: , , &amp;quot;sf mono&amp;quot; , &amp;quot;menlo&amp;quot; , &amp;quot;consolas&amp;quot; , &amp;quot;liberation mono&amp;quot; , monospace ; background-color: rgb(255 , 255 , 255)&quot;&gt;itemgetter&lt;/span&gt;&lt;span style=&quot;color: rgb(36 , 41 , 47) ; font-family: , , &amp;quot;sf mono&amp;quot; , &amp;quot;menlo&amp;quot; , &amp;quot;consolas&amp;quot; , &amp;quot;liberation mono&amp;quot; , monospace ; background-color: rgb(255 , 255 , 255)&quot;&gt;(&lt;/span&gt;&lt;span class=&quot;pl-c1&quot; style=&quot;box-sizing: border-box ; font-family: , , &amp;quot;sf mono&amp;quot; , &amp;quot;menlo&amp;quot; , &amp;quot;consolas&amp;quot; , &amp;quot;liberation mono&amp;quot; , monospace ; background-color: rgb(255 , 255 , 255)&quot;&gt;1&lt;/span&gt;&lt;span style=&quot;color: rgb(36 , 41 , 47) ; font-family: , , &amp;quot;sf mono&amp;quot; , &amp;quot;menlo&amp;quot; , &amp;quot;consolas&amp;quot; , &amp;quot;liberation mono&amp;quot; , monospace ; background-color: rgb(255 , 255 , 255)&quot;&gt;), &lt;/span&gt;&lt;span class=&quot;pl-s1&quot; style=&quot;box-sizing: border-box ; color: rgb(36 , 41 , 47) ; font-family: , , &amp;quot;sf mono&amp;quot; , &amp;quot;menlo&amp;quot; , &amp;quot;consolas&amp;quot; , &amp;quot;liberation mono&amp;quot; , monospace ; background-color: rgb(255 , 255 , 255)&quot;&gt;reverse&lt;/span&gt;&lt;span class=&quot;pl-c1&quot; style=&quot;box-sizing: border-box ; font-family: , , &amp;quot;sf mono&amp;quot; , &amp;quot;menlo&amp;quot; , &amp;quot;consolas&amp;quot; , &amp;quot;liberation mono&amp;quot; , monospace ; background-color: rgb(255 , 255 , 255)&quot;&gt;=&lt;/span&gt;&lt;span class=&quot;pl-c1&quot; style=&quot;box-sizing: border-box ; font-family: , , &amp;quot;sf mono&amp;quot; , &amp;quot;menlo&amp;quot; , &amp;quot;consolas&amp;quot; , &amp;quot;liberation mono&amp;quot; , monospace ; background-color: rgb(255 , 255 , 255)&quot;&gt;True&lt;/span&gt;&lt;span style=&quot;color: rgb(36 , 41 , 47) ; font-family: , , &amp;quot;sf mono&amp;quot; , &amp;quot;menlo&amp;quot; , &amp;quot;consolas&amp;quot; , &amp;quot;liberation mono&amp;quot; , monospace ; background-color: rgb(255 , 255 , 255)&quot;&gt;):&lt;/span&gt;&lt;/font&gt;" style="shape=hexagon;perimeter=hexagonPerimeter2;whiteSpace=wrap;html=1;fixedSize=1;fontSize=9;fontStyle=0" vertex="1" parent="1">
          <mxGeometry x="325" y="4670" width="151" height="80" as="geometry" />
        </mxCell>
        <mxCell id="qg9Bv7iyJqf_FRKgCrLy-99" style="edgeStyle=orthogonalEdgeStyle;rounded=0;orthogonalLoop=1;jettySize=auto;html=1;exitX=0.5;exitY=1;exitDx=0;exitDy=0;entryX=0;entryY=0.5;entryDx=0;entryDy=0;fontSize=8;fontStyle=0" edge="1" parent="1" source="qg9Bv7iyJqf_FRKgCrLy-90" target="qg9Bv7iyJqf_FRKgCrLy-89">
          <mxGeometry relative="1" as="geometry">
            <Array as="points">
              <mxPoint x="399" y="4870" />
              <mxPoint x="270" y="4870" />
              <mxPoint x="270" y="4710" />
            </Array>
          </mxGeometry>
        </mxCell>
        <mxCell id="qg9Bv7iyJqf_FRKgCrLy-90" value="&lt;div&gt;response = reader.country(addr[0])&lt;/div&gt;&lt;div&gt;self.geoip_lookup[response.country.name] += 1&amp;nbsp; # or += addr[1]&lt;/div&gt;&lt;div&gt;geoip_overall[response.country.name] += addr[1]&lt;/div&gt;" style="rounded=0;whiteSpace=wrap;html=1;fontSize=10;align=left;fontStyle=0" vertex="1" parent="1">
          <mxGeometry x="302" y="4780" width="194" height="70" as="geometry" />
        </mxCell>
        <mxCell id="qg9Bv7iyJqf_FRKgCrLy-91" value="&lt;div&gt;print(&#39;unique source IPs:&#39;)&lt;/div&gt;&lt;div&gt;print(len(self.src_ip_cnt))&lt;/div&gt;&lt;div&gt;print(&#39;unique countries for source IPs:&#39;)&lt;/div&gt;&lt;div&gt;print(len(self.geoip_lookup))&lt;/div&gt;&lt;div&gt;print(&#39;most common countries for source IPs:&#39;)&lt;/div&gt;" style="shape=parallelogram;perimeter=parallelogramPerimeter;whiteSpace=wrap;html=1;fixedSize=1;fontSize=10;align=center;fontStyle=0" vertex="1" parent="1">
          <mxGeometry x="285.5" y="4890" width="229" height="100" as="geometry" />
        </mxCell>
        <mxCell id="qg9Bv7iyJqf_FRKgCrLy-92" value="" style="endArrow=none;html=1;rounded=0;fontSize=10;exitX=0.5;exitY=0;exitDx=0;exitDy=0;entryX=0.5;entryY=1;entryDx=0;entryDy=0;fontStyle=0" edge="1" parent="1" source="qg9Bv7iyJqf_FRKgCrLy-89" target="qg9Bv7iyJqf_FRKgCrLy-88">
          <mxGeometry width="50" height="50" relative="1" as="geometry">
            <mxPoint x="190" y="4710" as="sourcePoint" />
            <mxPoint x="240" y="4660" as="targetPoint" />
          </mxGeometry>
        </mxCell>
        <mxCell id="qg9Bv7iyJqf_FRKgCrLy-93" value="" style="endArrow=none;html=1;rounded=0;fontSize=10;exitX=1;exitY=0.5;exitDx=0;exitDy=0;entryX=0.5;entryY=0;entryDx=0;entryDy=0;fontStyle=0" edge="1" parent="1" source="qg9Bv7iyJqf_FRKgCrLy-80" target="qg9Bv7iyJqf_FRKgCrLy-87">
          <mxGeometry width="50" height="50" relative="1" as="geometry">
            <mxPoint x="570" y="4370" as="sourcePoint" />
            <mxPoint x="610" y="4380" as="targetPoint" />
            <Array as="points">
              <mxPoint x="600" y="4315" />
              <mxPoint x="590" y="4470" />
              <mxPoint x="399" y="4470" />
            </Array>
          </mxGeometry>
        </mxCell>
        <mxCell id="qg9Bv7iyJqf_FRKgCrLy-94" value="" style="endArrow=none;html=1;rounded=0;fontSize=10;exitX=0.5;exitY=0;exitDx=0;exitDy=0;entryX=0.5;entryY=1;entryDx=0;entryDy=0;fontStyle=0" edge="1" parent="1" source="qg9Bv7iyJqf_FRKgCrLy-79" target="qg9Bv7iyJqf_FRKgCrLy-78">
          <mxGeometry width="50" height="50" relative="1" as="geometry">
            <mxPoint x="110" y="4210" as="sourcePoint" />
            <mxPoint x="160" y="4160" as="targetPoint" />
          </mxGeometry>
        </mxCell>
        <mxCell id="qg9Bv7iyJqf_FRKgCrLy-95" value="" style="endArrow=none;html=1;rounded=0;fontSize=10;exitX=0.5;exitY=0;exitDx=0;exitDy=0;entryX=0.5;entryY=1;entryDx=0;entryDy=0;fontStyle=0" edge="1" parent="1" source="qg9Bv7iyJqf_FRKgCrLy-80" target="qg9Bv7iyJqf_FRKgCrLy-79">
          <mxGeometry width="50" height="50" relative="1" as="geometry">
            <mxPoint x="200" y="4300" as="sourcePoint" />
            <mxPoint x="250" y="4250" as="targetPoint" />
          </mxGeometry>
        </mxCell>
        <mxCell id="qg9Bv7iyJqf_FRKgCrLy-102" style="edgeStyle=orthogonalEdgeStyle;rounded=0;orthogonalLoop=1;jettySize=auto;html=1;exitX=1;exitY=0.5;exitDx=0;exitDy=0;fontSize=8;fontStyle=0" edge="1" parent="1" source="qg9Bv7iyJqf_FRKgCrLy-96">
          <mxGeometry relative="1" as="geometry">
            <mxPoint x="400" y="5240" as="targetPoint" />
            <Array as="points">
              <mxPoint x="520" y="5050" />
              <mxPoint x="520" y="5210" />
              <mxPoint x="400" y="5210" />
            </Array>
          </mxGeometry>
        </mxCell>
        <mxCell id="qg9Bv7iyJqf_FRKgCrLy-96" value="&lt;span style=&quot;color: rgb(36 , 41 , 47) ; font-family: , , &amp;quot;sf mono&amp;quot; , &amp;quot;menlo&amp;quot; , &amp;quot;consolas&amp;quot; , &amp;quot;liberation mono&amp;quot; , monospace ; background-color: rgb(255 , 255 , 255)&quot;&gt; &lt;/span&gt;&lt;font style=&quot;font-size: 8px&quot;&gt;&lt;span class=&quot;pl-k&quot; style=&quot;box-sizing: border-box ; font-family: , , &amp;quot;sf mono&amp;quot; , &amp;quot;menlo&amp;quot; , &amp;quot;consolas&amp;quot; , &amp;quot;liberation mono&amp;quot; , monospace ; background-color: rgb(255 , 255 , 255)&quot;&gt;for&lt;/span&gt;&lt;span style=&quot;color: rgb(36 , 41 , 47) ; font-family: , , &amp;quot;sf mono&amp;quot; , &amp;quot;menlo&amp;quot; , &amp;quot;consolas&amp;quot; , &amp;quot;liberation mono&amp;quot; , monospace ; background-color: rgb(255 , 255 , 255)&quot;&gt; &lt;/span&gt;&lt;span class=&quot;pl-s1&quot; style=&quot;box-sizing: border-box ; color: rgb(36 , 41 , 47) ; font-family: , , &amp;quot;sf mono&amp;quot; , &amp;quot;menlo&amp;quot; , &amp;quot;consolas&amp;quot; , &amp;quot;liberation mono&amp;quot; , monospace ; background-color: rgb(255 , 255 , 255)&quot;&gt;country&lt;/span&gt;&lt;span style=&quot;color: rgb(36 , 41 , 47) ; font-family: , , &amp;quot;sf mono&amp;quot; , &amp;quot;menlo&amp;quot; , &amp;quot;consolas&amp;quot; , &amp;quot;liberation mono&amp;quot; , monospace ; background-color: rgb(255 , 255 , 255)&quot;&gt; &lt;/span&gt;&lt;span class=&quot;pl-c1&quot; style=&quot;box-sizing: border-box ; font-family: , , &amp;quot;sf mono&amp;quot; , &amp;quot;menlo&amp;quot; , &amp;quot;consolas&amp;quot; , &amp;quot;liberation mono&amp;quot; , monospace ; background-color: rgb(255 , 255 , 255)&quot;&gt;in&lt;/span&gt;&lt;span style=&quot;color: rgb(36 , 41 , 47) ; font-family: , , &amp;quot;sf mono&amp;quot; , &amp;quot;menlo&amp;quot; , &amp;quot;consolas&amp;quot; , &amp;quot;liberation mono&amp;quot; , monospace ; background-color: rgb(255 , 255 , 255)&quot;&gt; &lt;/span&gt;&lt;span class=&quot;pl-en&quot; style=&quot;box-sizing: border-box ; font-family: , , &amp;quot;sf mono&amp;quot; , &amp;quot;menlo&amp;quot; , &amp;quot;consolas&amp;quot; , &amp;quot;liberation mono&amp;quot; , monospace ; background-color: rgb(255 , 255 , 255)&quot;&gt;sorted&lt;/span&gt;&lt;span style=&quot;color: rgb(36 , 41 , 47) ; font-family: , , &amp;quot;sf mono&amp;quot; , &amp;quot;menlo&amp;quot; , &amp;quot;consolas&amp;quot; , &amp;quot;liberation mono&amp;quot; , monospace ; background-color: rgb(255 , 255 , 255)&quot;&gt;(&lt;/span&gt;&lt;span class=&quot;pl-s1&quot; style=&quot;box-sizing: border-box ; color: rgb(36 , 41 , 47) ; font-family: , , &amp;quot;sf mono&amp;quot; , &amp;quot;menlo&amp;quot; , &amp;quot;consolas&amp;quot; , &amp;quot;liberation mono&amp;quot; , monospace ; background-color: rgb(255 , 255 , 255)&quot;&gt;geoip_overall&lt;/span&gt;&lt;span style=&quot;color: rgb(36 , 41 , 47) ; font-family: , , &amp;quot;sf mono&amp;quot; , &amp;quot;menlo&amp;quot; , &amp;quot;consolas&amp;quot; , &amp;quot;liberation mono&amp;quot; , monospace ; background-color: rgb(255 , 255 , 255)&quot;&gt;.&lt;/span&gt;&lt;span class=&quot;pl-en&quot; style=&quot;box-sizing: border-box ; font-family: , , &amp;quot;sf mono&amp;quot; , &amp;quot;menlo&amp;quot; , &amp;quot;consolas&amp;quot; , &amp;quot;liberation mono&amp;quot; , monospace ; background-color: rgb(255 , 255 , 255)&quot;&gt;items&lt;/span&gt;&lt;span style=&quot;color: rgb(36 , 41 , 47) ; font-family: , , &amp;quot;sf mono&amp;quot; , &amp;quot;menlo&amp;quot; , &amp;quot;consolas&amp;quot; , &amp;quot;liberation mono&amp;quot; , monospace ; background-color: rgb(255 , 255 , 255)&quot;&gt;(), &lt;/span&gt;&lt;span class=&quot;pl-s1&quot; style=&quot;box-sizing: border-box ; color: rgb(36 , 41 , 47) ; font-family: , , &amp;quot;sf mono&amp;quot; , &amp;quot;menlo&amp;quot; , &amp;quot;consolas&amp;quot; , &amp;quot;liberation mono&amp;quot; , monospace ; background-color: rgb(255 , 255 , 255)&quot;&gt;key&lt;/span&gt;&lt;span class=&quot;pl-c1&quot; style=&quot;box-sizing: border-box ; font-family: , , &amp;quot;sf mono&amp;quot; , &amp;quot;menlo&amp;quot; , &amp;quot;consolas&amp;quot; , &amp;quot;liberation mono&amp;quot; , monospace ; background-color: rgb(255 , 255 , 255)&quot;&gt;=&lt;/span&gt;&lt;span class=&quot;pl-s1&quot; style=&quot;box-sizing: border-box ; color: rgb(36 , 41 , 47) ; font-family: , , &amp;quot;sf mono&amp;quot; , &amp;quot;menlo&amp;quot; , &amp;quot;consolas&amp;quot; , &amp;quot;liberation mono&amp;quot; , monospace ; background-color: rgb(255 , 255 , 255)&quot;&gt;operator&lt;/span&gt;&lt;span style=&quot;color: rgb(36 , 41 , 47) ; font-family: , , &amp;quot;sf mono&amp;quot; , &amp;quot;menlo&amp;quot; , &amp;quot;consolas&amp;quot; , &amp;quot;liberation mono&amp;quot; , monospace ; background-color: rgb(255 , 255 , 255)&quot;&gt;.&lt;/span&gt;&lt;span class=&quot;pl-en&quot; style=&quot;box-sizing: border-box ; font-family: , , &amp;quot;sf mono&amp;quot; , &amp;quot;menlo&amp;quot; , &amp;quot;consolas&amp;quot; , &amp;quot;liberation mono&amp;quot; , monospace ; background-color: rgb(255 , 255 , 255)&quot;&gt;itemgetter&lt;/span&gt;&lt;span style=&quot;color: rgb(36 , 41 , 47) ; font-family: , , &amp;quot;sf mono&amp;quot; , &amp;quot;menlo&amp;quot; , &amp;quot;consolas&amp;quot; , &amp;quot;liberation mono&amp;quot; , monospace ; background-color: rgb(255 , 255 , 255)&quot;&gt;(&lt;/span&gt;&lt;span class=&quot;pl-c1&quot; style=&quot;box-sizing: border-box ; font-family: , , &amp;quot;sf mono&amp;quot; , &amp;quot;menlo&amp;quot; , &amp;quot;consolas&amp;quot; , &amp;quot;liberation mono&amp;quot; , monospace ; background-color: rgb(255 , 255 , 255)&quot;&gt;1&lt;/span&gt;&lt;span style=&quot;color: rgb(36 , 41 , 47) ; font-family: , , &amp;quot;sf mono&amp;quot; , &amp;quot;menlo&amp;quot; , &amp;quot;consolas&amp;quot; , &amp;quot;liberation mono&amp;quot; , monospace ; background-color: rgb(255 , 255 , 255)&quot;&gt;), &lt;/span&gt;&lt;span class=&quot;pl-s1&quot; style=&quot;box-sizing: border-box ; color: rgb(36 , 41 , 47) ; font-family: , , &amp;quot;sf mono&amp;quot; , &amp;quot;menlo&amp;quot; , &amp;quot;consolas&amp;quot; , &amp;quot;liberation mono&amp;quot; , monospace ; background-color: rgb(255 , 255 , 255)&quot;&gt;reverse&lt;/span&gt;&lt;span class=&quot;pl-c1&quot; style=&quot;box-sizing: border-box ; font-family: , , &amp;quot;sf mono&amp;quot; , &amp;quot;menlo&amp;quot; , &amp;quot;consolas&amp;quot; , &amp;quot;liberation mono&amp;quot; , monospace ; background-color: rgb(255 , 255 , 255)&quot;&gt;=&lt;/span&gt;&lt;span class=&quot;pl-c1&quot; style=&quot;box-sizing: border-box ; font-family: , , &amp;quot;sf mono&amp;quot; , &amp;quot;menlo&amp;quot; , &amp;quot;consolas&amp;quot; , &amp;quot;liberation mono&amp;quot; , monospace ; background-color: rgb(255 , 255 , 255)&quot;&gt;True&lt;/span&gt;&lt;span style=&quot;color: rgb(36 , 41 , 47) ; font-family: , , &amp;quot;sf mono&amp;quot; , &amp;quot;menlo&amp;quot; , &amp;quot;consolas&amp;quot; , &amp;quot;liberation mono&amp;quot; , monospace ; background-color: rgb(255 , 255 , 255)&quot;&gt;)[:&lt;/span&gt;&lt;span class=&quot;pl-c1&quot; style=&quot;box-sizing: border-box ; font-family: , , &amp;quot;sf mono&amp;quot; , &amp;quot;menlo&amp;quot; , &amp;quot;consolas&amp;quot; , &amp;quot;liberation mono&amp;quot; , monospace ; background-color: rgb(255 , 255 , 255)&quot;&gt;10&lt;/span&gt;&lt;span style=&quot;color: rgb(36 , 41 , 47) ; font-family: , , &amp;quot;sf mono&amp;quot; , &amp;quot;menlo&amp;quot; , &amp;quot;consolas&amp;quot; , &amp;quot;liberation mono&amp;quot; , monospace ; background-color: rgb(255 , 255 , 255)&quot;&gt;]:&lt;/span&gt;&lt;/font&gt;" style="shape=hexagon;perimeter=hexagonPerimeter2;whiteSpace=wrap;html=1;fixedSize=1;fontSize=9;fontStyle=0" vertex="1" parent="1">
          <mxGeometry x="325" y="5010" width="151" height="80" as="geometry" />
        </mxCell>
        <mxCell id="qg9Bv7iyJqf_FRKgCrLy-101" style="edgeStyle=orthogonalEdgeStyle;rounded=0;orthogonalLoop=1;jettySize=auto;html=1;exitX=0.5;exitY=1;exitDx=0;exitDy=0;entryX=0;entryY=0.5;entryDx=0;entryDy=0;fontSize=8;fontStyle=0" edge="1" parent="1" source="qg9Bv7iyJqf_FRKgCrLy-98" target="qg9Bv7iyJqf_FRKgCrLy-96">
          <mxGeometry relative="1" as="geometry">
            <Array as="points">
              <mxPoint x="399" y="5190" />
              <mxPoint x="305" y="5190" />
              <mxPoint x="305" y="5050" />
            </Array>
          </mxGeometry>
        </mxCell>
        <mxCell id="qg9Bv7iyJqf_FRKgCrLy-98" value="&lt;span class=&quot;pl-en&quot; style=&quot;box-sizing: border-box ; font-family: , , &amp;quot;sf mono&amp;quot; , &amp;quot;menlo&amp;quot; , &amp;quot;consolas&amp;quot; , &amp;quot;liberation mono&amp;quot; , monospace ; font-size: 12px ; background-color: rgb(255 , 255 , 255)&quot;&gt;print&lt;/span&gt;&lt;span style=&quot;color: rgb(36 , 41 , 47) ; font-family: , , &amp;quot;sf mono&amp;quot; , &amp;quot;menlo&amp;quot; , &amp;quot;consolas&amp;quot; , &amp;quot;liberation mono&amp;quot; , monospace ; font-size: 12px ; background-color: rgb(255 , 255 , 255)&quot;&gt;(&lt;/span&gt;&lt;span class=&quot;pl-s1&quot; style=&quot;box-sizing: border-box ; color: rgb(36 , 41 , 47) ; font-family: , , &amp;quot;sf mono&amp;quot; , &amp;quot;menlo&amp;quot; , &amp;quot;consolas&amp;quot; , &amp;quot;liberation mono&amp;quot; , monospace ; font-size: 12px ; background-color: rgb(255 , 255 , 255)&quot;&gt;country&lt;/span&gt;&lt;span style=&quot;color: rgb(36 , 41 , 47) ; font-family: , , &amp;quot;sf mono&amp;quot; , &amp;quot;menlo&amp;quot; , &amp;quot;consolas&amp;quot; , &amp;quot;liberation mono&amp;quot; , monospace ; font-size: 12px ; background-color: rgb(255 , 255 , 255)&quot;&gt;)&lt;/span&gt;" style="shape=parallelogram;perimeter=parallelogramPerimeter;whiteSpace=wrap;html=1;fixedSize=1;fontSize=10;fontStyle=0" vertex="1" parent="1">
          <mxGeometry x="339" y="5110" width="120" height="60" as="geometry" />
        </mxCell>
        <mxCell id="qg9Bv7iyJqf_FRKgCrLy-103" value="&lt;font style=&quot;font-size: 10px&quot;&gt;&lt;span class=&quot;pl-k&quot; style=&quot;box-sizing: border-box ; font-family: , , &amp;quot;sf mono&amp;quot; , &amp;quot;menlo&amp;quot; , &amp;quot;consolas&amp;quot; , &amp;quot;liberation mono&amp;quot; , monospace ; background-color: rgb(255 , 255 , 255)&quot;&gt;if&lt;/span&gt;&lt;span style=&quot;color: rgb(36 , 41 , 47) ; font-family: , , &amp;quot;sf mono&amp;quot; , &amp;quot;menlo&amp;quot; , &amp;quot;consolas&amp;quot; , &amp;quot;liberation mono&amp;quot; , monospace ; background-color: rgb(255 , 255 , 255)&quot;&gt; &lt;/span&gt;&lt;span class=&quot;pl-s1&quot; style=&quot;box-sizing: border-box ; color: rgb(36 , 41 , 47) ; font-family: , , &amp;quot;sf mono&amp;quot; , &amp;quot;menlo&amp;quot; , &amp;quot;consolas&amp;quot; , &amp;quot;liberation mono&amp;quot; , monospace ; background-color: rgb(255 , 255 , 255)&quot;&gt;__name__&lt;/span&gt;&lt;span style=&quot;color: rgb(36 , 41 , 47) ; font-family: , , &amp;quot;sf mono&amp;quot; , &amp;quot;menlo&amp;quot; , &amp;quot;consolas&amp;quot; , &amp;quot;liberation mono&amp;quot; , monospace ; background-color: rgb(255 , 255 , 255)&quot;&gt; &lt;/span&gt;&lt;span class=&quot;pl-c1&quot; style=&quot;box-sizing: border-box ; font-family: , , &amp;quot;sf mono&amp;quot; , &amp;quot;menlo&amp;quot; , &amp;quot;consolas&amp;quot; , &amp;quot;liberation mono&amp;quot; , monospace ; background-color: rgb(255 , 255 , 255)&quot;&gt;==&lt;/span&gt;&lt;span style=&quot;color: rgb(36 , 41 , 47) ; font-family: , , &amp;quot;sf mono&amp;quot; , &amp;quot;menlo&amp;quot; , &amp;quot;consolas&amp;quot; , &amp;quot;liberation mono&amp;quot; , monospace ; background-color: rgb(255 , 255 , 255)&quot;&gt; &lt;/span&gt;&lt;span class=&quot;pl-s&quot; style=&quot;box-sizing: border-box ; font-family: , , &amp;quot;sf mono&amp;quot; , &amp;quot;menlo&amp;quot; , &amp;quot;consolas&amp;quot; , &amp;quot;liberation mono&amp;quot; , monospace ; background-color: rgb(255 , 255 , 255)&quot;&gt;&#39;__main__&#39;&lt;/span&gt;&lt;span style=&quot;color: rgb(36 , 41 , 47) ; font-family: , , &amp;quot;sf mono&amp;quot; , &amp;quot;menlo&amp;quot; , &amp;quot;consolas&amp;quot; , &amp;quot;liberation mono&amp;quot; , monospace ; background-color: rgb(255 , 255 , 255)&quot;&gt;:&lt;/span&gt;&lt;/font&gt;" style="rhombus;whiteSpace=wrap;html=1;fontSize=8;fontStyle=0" vertex="1" parent="1">
          <mxGeometry x="345" y="5240" width="111" height="80" as="geometry" />
        </mxCell>
        <mxCell id="qg9Bv7iyJqf_FRKgCrLy-104" value="&lt;font style=&quot;font-size: 9px&quot;&gt;&lt;span class=&quot;pl-v&quot; style=&quot;box-sizing: border-box ; font-family: , , &amp;quot;sf mono&amp;quot; , &amp;quot;menlo&amp;quot; , &amp;quot;consolas&amp;quot; , &amp;quot;liberation mono&amp;quot; , monospace ; background-color: rgb(255 , 255 , 255)&quot;&gt;&lt;span class=&quot;pl-token&quot; style=&quot;box-sizing: border-box&quot;&gt;CowrieAnalyzer&lt;/span&gt;&lt;/span&gt;&lt;span style=&quot;color: rgb(36 , 41 , 47) ; font-family: , , &amp;quot;sf mono&amp;quot; , &amp;quot;menlo&amp;quot; , &amp;quot;consolas&amp;quot; , &amp;quot;liberation mono&amp;quot; , monospace ; background-color: rgb(255 , 255 , 255)&quot;&gt;().&lt;/span&gt;&lt;span class=&quot;pl-en&quot; style=&quot;box-sizing: border-box ; font-family: , , &amp;quot;sf mono&amp;quot; , &amp;quot;menlo&amp;quot; , &amp;quot;consolas&amp;quot; , &amp;quot;liberation mono&amp;quot; , monospace ; background-color: rgb(255 , 255 , 255)&quot;&gt;&lt;span class=&quot;pl-token&quot; style=&quot;box-sizing: border-box&quot;&gt;run&lt;/span&gt;&lt;/span&gt;&lt;span style=&quot;color: rgb(36 , 41 , 47) ; font-family: , , &amp;quot;sf mono&amp;quot; , &amp;quot;menlo&amp;quot; , &amp;quot;consolas&amp;quot; , &amp;quot;liberation mono&amp;quot; , monospace ; background-color: rgb(255 , 255 , 255)&quot;&gt;()&lt;/span&gt;&lt;/font&gt;" style="shape=parallelogram;perimeter=parallelogramPerimeter;whiteSpace=wrap;html=1;fixedSize=1;fontSize=10;fontStyle=0" vertex="1" parent="1">
          <mxGeometry x="341" y="5350" width="120" height="60" as="geometry" />
        </mxCell>
        <mxCell id="qg9Bv7iyJqf_FRKgCrLy-105" value="" style="endArrow=none;html=1;rounded=0;fontSize=9;exitX=0.5;exitY=0;exitDx=0;exitDy=0;entryX=0.5;entryY=1;entryDx=0;entryDy=0;fontStyle=0" edge="1" parent="1" source="qg9Bv7iyJqf_FRKgCrLy-104" target="qg9Bv7iyJqf_FRKgCrLy-103">
          <mxGeometry width="50" height="50" relative="1" as="geometry">
            <mxPoint x="250" y="5390" as="sourcePoint" />
            <mxPoint x="300" y="5340" as="targetPoint" />
          </mxGeometry>
        </mxCell>
        <mxCell id="qg9Bv7iyJqf_FRKgCrLy-106" value="" style="endArrow=none;html=1;rounded=0;fontSize=9;entryX=0.5;entryY=1;entryDx=0;entryDy=0;fontStyle=0" edge="1" parent="1" target="qg9Bv7iyJqf_FRKgCrLy-104">
          <mxGeometry width="50" height="50" relative="1" as="geometry">
            <mxPoint x="401" y="5440" as="sourcePoint" />
            <mxPoint x="430" y="5420" as="targetPoint" />
          </mxGeometry>
        </mxCell>
        <mxCell id="qg9Bv7iyJqf_FRKgCrLy-108" value="Останов" style="strokeWidth=2;html=1;shape=mxgraph.flowchart.start_1;whiteSpace=wrap;fontSize=9;fontStyle=0" vertex="1" parent="1">
          <mxGeometry x="351" y="5440" width="100" height="60" as="geometry" />
        </mxCell>
        <mxCell id="qg9Bv7iyJqf_FRKgCrLy-109" value="Да" style="text;html=1;align=center;verticalAlign=middle;resizable=0;points=[];autosize=1;strokeColor=none;fillColor=none;fontSize=9;fontStyle=0" vertex="1" parent="1">
          <mxGeometry x="395" y="5320" width="30" height="20" as="geometry" />
        </mxCell>
        <mxCell id="qg9Bv7iyJqf_FRKgCrLy-110" value="" style="endArrow=none;html=1;rounded=0;fontSize=9;fontStyle=0" edge="1" parent="1" source="qg9Bv7iyJqf_FRKgCrLy-103">
          <mxGeometry width="50" height="50" relative="1" as="geometry">
            <mxPoint x="456" y="5330" as="sourcePoint" />
            <mxPoint x="401" y="5430" as="targetPoint" />
            <Array as="points">
              <mxPoint x="500" y="5280" />
              <mxPoint x="500" y="5430" />
            </Array>
          </mxGeometry>
        </mxCell>
        <mxCell id="qg9Bv7iyJqf_FRKgCrLy-111" value="Нет" style="text;html=1;align=center;verticalAlign=middle;resizable=0;points=[];autosize=1;strokeColor=none;fillColor=none;fontSize=9;fontStyle=0" vertex="1" parent="1">
          <mxGeometry x="455" y="5260" width="30" height="20" as="geometry" />
        </mxCell>
        <mxCell id="qg9Bv7iyJqf_FRKgCrLy-112" value="" style="endArrow=none;html=1;rounded=0;fontSize=9;exitX=0.5;exitY=0;exitDx=0;exitDy=0;entryX=0.5;entryY=1;entryDx=0;entryDy=0;fontStyle=0" edge="1" parent="1" source="qg9Bv7iyJqf_FRKgCrLy-96" target="qg9Bv7iyJqf_FRKgCrLy-91">
          <mxGeometry width="50" height="50" relative="1" as="geometry">
            <mxPoint x="110" y="5040" as="sourcePoint" />
            <mxPoint x="160" y="4990" as="targetPoint" />
          </mxGeometry>
        </mxCell>
        <mxCell id="qg9Bv7iyJqf_FRKgCrLy-113" value="" style="endArrow=none;html=1;rounded=0;fontSize=9;exitX=0.5;exitY=0;exitDx=0;exitDy=0;entryX=0.5;entryY=1;entryDx=0;entryDy=0;fontStyle=0" edge="1" parent="1" source="qg9Bv7iyJqf_FRKgCrLy-88" target="qg9Bv7iyJqf_FRKgCrLy-87">
          <mxGeometry width="50" height="50" relative="1" as="geometry">
            <mxPoint x="140" y="4530" as="sourcePoint" />
            <mxPoint x="190" y="4480" as="targetPoint" />
          </mxGeometry>
        </mxCell>
        <mxCell id="qg9Bv7iyJqf_FRKgCrLy-114" value="" style="endArrow=none;html=1;rounded=0;fontSize=9;exitX=0.5;exitY=0;exitDx=0;exitDy=0;entryX=0.5;entryY=1;entryDx=0;entryDy=0;fontStyle=0" edge="1" parent="1" source="qg9Bv7iyJqf_FRKgCrLy-75" target="qg9Bv7iyJqf_FRKgCrLy-71">
          <mxGeometry width="50" height="50" relative="1" as="geometry">
            <mxPoint x="220" y="3840" as="sourcePoint" />
            <mxPoint x="270" y="3790" as="targetPoint" />
          </mxGeometry>
        </mxCell>
        <mxCell id="qg9Bv7iyJqf_FRKgCrLy-115" value="" style="endArrow=none;html=1;rounded=0;fontSize=9;exitX=0.5;exitY=0;exitDx=0;exitDy=0;entryX=0.5;entryY=1;entryDx=0;entryDy=0;fontStyle=0" edge="1" parent="1" source="qg9Bv7iyJqf_FRKgCrLy-23" target="qg9Bv7iyJqf_FRKgCrLy-21">
          <mxGeometry width="50" height="50" relative="1" as="geometry">
            <mxPoint x="150" y="2010" as="sourcePoint" />
            <mxPoint x="200" y="1960" as="targetPoint" />
          </mxGeometry>
        </mxCell>
        <mxCell id="qg9Bv7iyJqf_FRKgCrLy-116" value="" style="endArrow=none;html=1;rounded=0;fontSize=9;exitX=0.5;exitY=0;exitDx=0;exitDy=0;entryX=0.5;entryY=1;entryDx=0;entryDy=0;fontStyle=0" edge="1" parent="1" source="qg9Bv7iyJqf_FRKgCrLy-15" target="qg9Bv7iyJqf_FRKgCrLy-14">
          <mxGeometry width="50" height="50" relative="1" as="geometry">
            <mxPoint x="90" y="1670" as="sourcePoint" />
            <mxPoint x="140" y="1620" as="targetPoint" />
          </mxGeometry>
        </mxCell>
        <mxCell id="qg9Bv7iyJqf_FRKgCrLy-117" value="" style="endArrow=none;html=1;rounded=0;fontSize=9;exitX=0.5;exitY=0;exitDx=0;exitDy=0;entryX=0.5;entryY=1;entryDx=0;entryDy=0;fontStyle=0" edge="1" parent="1" source="qg9Bv7iyJqf_FRKgCrLy-14" target="qg9Bv7iyJqf_FRKgCrLy-13">
          <mxGeometry width="50" height="50" relative="1" as="geometry">
            <mxPoint x="490" y="1630" as="sourcePoint" />
            <mxPoint x="540" y="1580" as="targetPoint" />
          </mxGeometry>
        </mxCell>
        <mxCell id="qg9Bv7iyJqf_FRKgCrLy-118" value="" style="endArrow=none;html=1;rounded=0;fontSize=9;exitX=0.5;exitY=0;exitDx=0;exitDy=0;entryX=0.5;entryY=1;entryDx=0;entryDy=0;fontStyle=0" edge="1" parent="1" source="qg9Bv7iyJqf_FRKgCrLy-13" target="qg9Bv7iyJqf_FRKgCrLy-12">
          <mxGeometry width="50" height="50" relative="1" as="geometry">
            <mxPoint x="140" y="1500" as="sourcePoint" />
            <mxPoint x="190" y="1450" as="targetPoint" />
          </mxGeometry>
        </mxCell>
        <mxCell id="qg9Bv7iyJqf_FRKgCrLy-119" value="" style="endArrow=none;html=1;rounded=0;fontSize=9;exitX=0.5;exitY=0;exitDx=0;exitDy=0;entryX=0.5;entryY=1;entryDx=0;entryDy=0;fontStyle=0" edge="1" parent="1" source="qg9Bv7iyJqf_FRKgCrLy-12" target="qg9Bv7iyJqf_FRKgCrLy-11">
          <mxGeometry width="50" height="50" relative="1" as="geometry">
            <mxPoint x="190" y="1420" as="sourcePoint" />
            <mxPoint x="240" y="1370" as="targetPoint" />
          </mxGeometry>
        </mxCell>
        <mxCell id="qg9Bv7iyJqf_FRKgCrLy-120" value="" style="endArrow=none;html=1;rounded=0;fontSize=9;exitX=0.5;exitY=0;exitDx=0;exitDy=0;entryX=0.5;entryY=1;entryDx=0;entryDy=0;fontStyle=0" edge="1" parent="1" source="qg9Bv7iyJqf_FRKgCrLy-9" target="qg9Bv7iyJqf_FRKgCrLy-10">
          <mxGeometry width="50" height="50" relative="1" as="geometry">
            <mxPoint x="180" y="1060" as="sourcePoint" />
            <mxPoint x="230" y="1010" as="targetPoint" />
          </mxGeometry>
        </mxCell>
        <mxCell id="qg9Bv7iyJqf_FRKgCrLy-121" value="" style="endArrow=none;html=1;rounded=0;fontSize=9;exitX=0.5;exitY=0;exitDx=0;exitDy=0;entryX=0.5;entryY=1;entryDx=0;entryDy=0;fontStyle=0" edge="1" parent="1" source="qg9Bv7iyJqf_FRKgCrLy-8" target="qg9Bv7iyJqf_FRKgCrLy-7">
          <mxGeometry width="50" height="50" relative="1" as="geometry">
            <mxPoint x="220" y="760" as="sourcePoint" />
            <mxPoint x="270" y="710" as="targetPoint" />
          </mxGeometry>
        </mxCell>
        <mxCell id="qg9Bv7iyJqf_FRKgCrLy-122" value="&lt;span class=&quot;pl-k&quot; style=&quot;box-sizing: border-box ; font-family: , , &amp;quot;sf mono&amp;quot; , &amp;quot;menlo&amp;quot; , &amp;quot;consolas&amp;quot; , &amp;quot;liberation mono&amp;quot; , monospace ; font-size: 12px ; background-color: rgb(255 , 255 , 255)&quot;&gt;class&lt;/span&gt;&lt;span style=&quot;color: rgb(36 , 41 , 47) ; font-family: , , &amp;quot;sf mono&amp;quot; , &amp;quot;menlo&amp;quot; , &amp;quot;consolas&amp;quot; , &amp;quot;liberation mono&amp;quot; , monospace ; font-size: 12px ; background-color: rgb(255 , 255 , 255)&quot;&gt; &lt;/span&gt;&lt;span class=&quot;pl-v&quot; style=&quot;box-sizing: border-box ; font-family: , , &amp;quot;sf mono&amp;quot; , &amp;quot;menlo&amp;quot; , &amp;quot;consolas&amp;quot; , &amp;quot;liberation mono&amp;quot; , monospace ; font-size: 12px ; background-color: rgb(255 , 255 , 255)&quot;&gt;&lt;span class=&quot;pl-token&quot; style=&quot;box-sizing: border-box&quot;&gt;CowrieAnalyzer&lt;/span&gt;&lt;/span&gt;&lt;span style=&quot;color: rgb(36 , 41 , 47) ; font-family: , , &amp;quot;sf mono&amp;quot; , &amp;quot;menlo&amp;quot; , &amp;quot;consolas&amp;quot; , &amp;quot;liberation mono&amp;quot; , monospace ; font-size: 12px ; background-color: rgb(255 , 255 , 255)&quot;&gt;:&lt;/span&gt;" style="shape=process;whiteSpace=wrap;html=1;backgroundOutline=1;fontSize=9;fontStyle=0" vertex="1" parent="1">
          <mxGeometry x="321" y="620" width="185" height="60" as="geometry" />
        </mxCell>
        <mxCell id="qg9Bv7iyJqf_FRKgCrLy-123" value="" style="endArrow=none;html=1;rounded=0;fontSize=9;exitX=0.5;exitY=0;exitDx=0;exitDy=0;entryX=0.5;entryY=1;entryDx=0;entryDy=0;fontStyle=0" edge="1" parent="1" source="qg9Bv7iyJqf_FRKgCrLy-7" target="qg9Bv7iyJqf_FRKgCrLy-122">
          <mxGeometry width="50" height="50" relative="1" as="geometry">
            <mxPoint x="150" y="710" as="sourcePoint" />
            <mxPoint x="200" y="660" as="targetPoint" />
          </mxGeometry>
        </mxCell>
        <mxCell id="qg9Bv7iyJqf_FRKgCrLy-124" value="" style="endArrow=none;html=1;rounded=0;fontSize=9;exitX=0.5;exitY=0;exitDx=0;exitDy=0;entryX=0.5;entryY=1;entryDx=0;entryDy=0;fontStyle=0" edge="1" parent="1" source="qg9Bv7iyJqf_FRKgCrLy-122" target="qg9Bv7iyJqf_FRKgCrLy-6">
          <mxGeometry width="50" height="50" relative="1" as="geometry">
            <mxPoint x="150" y="610" as="sourcePoint" />
            <mxPoint x="200" y="560" as="targetPoint" />
          </mxGeometry>
        </mxCell>
        <mxCell id="qg9Bv7iyJqf_FRKgCrLy-125" value="" style="endArrow=none;html=1;rounded=0;fontSize=9;exitX=0.5;exitY=0;exitDx=0;exitDy=0;entryX=0.5;entryY=1;entryDx=0;entryDy=0;fontStyle=0" edge="1" parent="1" source="qg9Bv7iyJqf_FRKgCrLy-6" target="qg9Bv7iyJqf_FRKgCrLy-5">
          <mxGeometry width="50" height="50" relative="1" as="geometry">
            <mxPoint x="110" y="520" as="sourcePoint" />
            <mxPoint x="160" y="470" as="targetPoint" />
          </mxGeometry>
        </mxCell>
        <mxCell id="qg9Bv7iyJqf_FRKgCrLy-126" value="" style="endArrow=none;html=1;rounded=0;fontSize=9;exitX=0.5;exitY=0;exitDx=0;exitDy=0;entryX=0.5;entryY=1;entryDx=0;entryDy=0;fontStyle=0" edge="1" parent="1" source="qg9Bv7iyJqf_FRKgCrLy-5" target="qg9Bv7iyJqf_FRKgCrLy-4">
          <mxGeometry width="50" height="50" relative="1" as="geometry">
            <mxPoint x="130" y="430" as="sourcePoint" />
            <mxPoint x="180" y="380" as="targetPoint" />
          </mxGeometry>
        </mxCell>
        <mxCell id="qg9Bv7iyJqf_FRKgCrLy-127" value="" style="endArrow=none;html=1;rounded=0;fontSize=9;exitX=0.5;exitY=0;exitDx=0;exitDy=0;entryX=0.5;entryY=1;entryDx=0;entryDy=0;fontStyle=0" edge="1" parent="1" source="qg9Bv7iyJqf_FRKgCrLy-4" target="qg9Bv7iyJqf_FRKgCrLy-3">
          <mxGeometry width="50" height="50" relative="1" as="geometry">
            <mxPoint x="220" y="310" as="sourcePoint" />
            <mxPoint x="270" y="260" as="targetPoint" />
          </mxGeometry>
        </mxCell>
        <mxCell id="qg9Bv7iyJqf_FRKgCrLy-128" value="" style="endArrow=none;html=1;rounded=0;fontSize=9;exitX=0.5;exitY=0;exitDx=0;exitDy=0;entryX=0.5;entryY=1;entryDx=0;entryDy=0;fontStyle=0" edge="1" parent="1" source="qg9Bv7iyJqf_FRKgCrLy-3" target="qg9Bv7iyJqf_FRKgCrLy-2">
          <mxGeometry width="50" height="50" relative="1" as="geometry">
            <mxPoint x="100" y="310" as="sourcePoint" />
            <mxPoint x="150" y="260" as="targetPoint" />
          </mxGeometry>
        </mxCell>
        <mxCell id="qg9Bv7iyJqf_FRKgCrLy-129" value="" style="endArrow=none;html=1;rounded=0;fontSize=9;exitX=0.5;exitY=0;exitDx=0;exitDy=0;entryX=0.5;entryY=1;entryDx=0;entryDy=0;entryPerimeter=0;fontStyle=0" edge="1" parent="1" source="qg9Bv7iyJqf_FRKgCrLy-2" target="qg9Bv7iyJqf_FRKgCrLy-1">
          <mxGeometry width="50" height="50" relative="1" as="geometry">
            <mxPoint x="190" y="110" as="sourcePoint" />
            <mxPoint x="240" y="60" as="targetPoint" />
          </mxGeometry>
        </mxCell>
        <mxCell id="qg9Bv7iyJqf_FRKgCrLy-130" value="" style="endArrow=none;html=1;rounded=0;fontSize=9;exitX=0.5;exitY=0;exitDx=0;exitDy=0;entryX=0.5;entryY=1;entryDx=0;entryDy=0;fontStyle=0" edge="1" parent="1" source="qg9Bv7iyJqf_FRKgCrLy-10" target="qg9Bv7iyJqf_FRKgCrLy-8">
          <mxGeometry width="50" height="50" relative="1" as="geometry">
            <mxPoint x="110" y="1030" as="sourcePoint" />
            <mxPoint x="160" y="980" as="targetPoint" />
          </mxGeometry>
        </mxCell>
        <mxCell id="qg9Bv7iyJqf_FRKgCrLy-131" value="" style="endArrow=none;html=1;rounded=0;fontSize=9;exitX=0.5;exitY=0;exitDx=0;exitDy=0;entryX=0.5;entryY=1;entryDx=0;entryDy=0;fontStyle=0" edge="1" parent="1" source="qg9Bv7iyJqf_FRKgCrLy-11" target="qg9Bv7iyJqf_FRKgCrLy-9">
          <mxGeometry width="50" height="50" relative="1" as="geometry">
            <mxPoint x="160" y="1380" as="sourcePoint" />
            <mxPoint x="210" y="1330" as="targetPoint" />
          </mxGeometry>
        </mxCell>
      </root>
    </mxGraphModel>
  </diagram>
</mxfile>
